<svg xmlns="http://www.w3.org/2000/svg" xmlns:xlink="http://www.w3.org/1999/xlink" width="51" height="50.651" viewBox="0 0 51 50.651">
  <defs>
    <clipPath id="clip-path">
      <rect id="Retângulo_180" data-name="Retângulo 180" width="51" height="50.651" fill="#fff"/>
    </clipPath>
  </defs>
  <g id="Grupo_222" data-name="Grupo 222" clip-path="url(#clip-path)">
    <path id="Caminho_425" data-name="Caminho 425" d="M1.855,50.651A1.856,1.856,0,0,1,0,48.8V1.487A.628.628,0,0,1,.625.859H3.083a.628.628,0,0,1,.625.628V46.938H49.162a.628.628,0,0,1,.627.625v2.462a.628.628,0,0,1-.627.625ZM6.732,38.938a2.188,2.188,0,0,0,.393,3.072l1.621,1.253a2.193,2.193,0,0,0,3.072-.4L22.587,28.932l12.708-.04a3.218,3.218,0,0,0,2.684-1.454L44.438,16.1l.133,3.81a2.191,2.191,0,0,0,2.268,2.111l2.044-.072A2.2,2.2,0,0,0,51,19.68Q50.643,9.838,50.3,0,41.454,4.329,32.61,8.666a2.192,2.192,0,0,0-1,2.934l.9,1.835a2.194,2.194,0,0,0,2.931,1l3.535-1.733L33.46,22.468l-12.435.04a3.112,3.112,0,0,0-1.426.319,3.218,3.218,0,0,0-1.136.924Z" transform="translate(0 0.001)" fill="#fff" fill-rule="evenodd"/>
  </g>
</svg>
