<svg xmlns="http://www.w3.org/2000/svg" xmlns:xlink="http://www.w3.org/1999/xlink" width="93.133" height="80" viewBox="0 0 93.133 80">
  <defs>
    <clipPath id="clip-path">
      <rect id="Retângulo_163" data-name="Retângulo 163" width="93.133" height="80" fill="#fff"/>
    </clipPath>
  </defs>
  <g id="Grupo_184" data-name="Grupo 184" clip-path="url(#clip-path)">
    <path id="Caminho_397" data-name="Caminho 397" d="M97.1,57.626A1.709,1.709,0,0,0,96,56.9l-2.935-.561a20.4,20.4,0,0,0-.983-4.724l2.477-1.683a1.723,1.723,0,0,0,.456-2.393l-4.354-6.407a1.722,1.722,0,0,0-2.392-.457l-2.477,1.684a20.37,20.37,0,0,0-4.031-2.653l.562-2.938a1.724,1.724,0,0,0-1.369-2.014L73.338,33.3a1.722,1.722,0,0,0-2.014,1.369l-.561,2.938a20.371,20.371,0,0,0-4.724.982l-1.681-2.476a1.725,1.725,0,0,0-2.395-.456l-6.407,4.354a1.727,1.727,0,0,0-.455,2.393l1.683,2.476a20.272,20.272,0,0,0-2.652,4.031l-2.938-.56a1.72,1.72,0,0,0-2.013,1.369l-1.452,7.61A1.721,1.721,0,0,0,49.1,59.346l2.938.561a20.323,20.323,0,0,0,.983,4.725L50.54,66.314a1.722,1.722,0,0,0-.456,2.393l4.354,6.407a1.722,1.722,0,0,0,2.391.456l2.477-1.683a20.45,20.45,0,0,0,4.031,2.653l-.559,2.938a1.72,1.72,0,0,0,1.37,2.013l7.607,1.451a1.739,1.739,0,0,0,.326.031,1.721,1.721,0,0,0,1.688-1.4l.561-2.937a20.379,20.379,0,0,0,4.725-.982l1.683,2.476a1.721,1.721,0,0,0,2.392.456l6.407-4.353a1.724,1.724,0,0,0,.457-2.394l-1.684-2.476a20.324,20.324,0,0,0,2.654-4.031l2.937.56a1.723,1.723,0,0,0,2.014-1.369l1.451-7.609a1.708,1.708,0,0,0-.268-1.29m-4.244,6.562L90.282,63.7a1.72,1.72,0,0,0-1.914,1.031,16.9,16.9,0,0,1-3.481,5.291,1.724,1.724,0,0,0-.185,2.165l1.473,2.17-3.556,2.418L81.144,74.6a1.726,1.726,0,0,0-2.081-.625,16.97,16.97,0,0,1-6.2,1.29,1.718,1.718,0,0,0-1.66,1.4l-.491,2.572-4.225-.806.491-2.572a1.722,1.722,0,0,0-1.032-1.913,16.956,16.956,0,0,1-5.291-3.481,1.723,1.723,0,0,0-2.164-.186l-2.171,1.474L53.9,68.2l2.171-1.473a1.724,1.724,0,0,0,.625-2.081,17.022,17.022,0,0,1-1.289-6.2,1.722,1.722,0,0,0-1.4-1.662l-2.572-.491.8-4.225,2.573.491a1.721,1.721,0,0,0,1.912-1.03,16.976,16.976,0,0,1,3.481-5.292,1.723,1.723,0,0,0,.187-2.164L58.917,41.9l3.558-2.418,1.474,2.169a1.726,1.726,0,0,0,2.082.625,16.97,16.97,0,0,1,6.2-1.288,1.725,1.725,0,0,0,1.664-1.4l.491-2.572,4.224.806-.491,2.572A1.722,1.722,0,0,0,79.151,42.3a16.993,16.993,0,0,1,5.291,3.481,1.722,1.722,0,0,0,2.165.186L88.776,44.5l2.419,3.557-2.17,1.475a1.725,1.725,0,0,0-.626,2.081,16.945,16.945,0,0,1,1.289,6.2,1.723,1.723,0,0,0,1.4,1.662l2.572.492Z" transform="translate(-4.265 -2.975)" fill="#fff"/>
    <path id="Caminho_398" data-name="Caminho 398" d="M76.091,47.19A12.379,12.379,0,1,0,85.93,61.668,12.3,12.3,0,0,0,76.091,47.19m6.456,13.833a8.933,8.933,0,0,1-10.449,7.1h0a8.935,8.935,0,0,1,1.656-17.711,9.145,9.145,0,0,1,1.694.16,8.944,8.944,0,0,1,7.1,10.45" transform="translate(-5.489 -4.199)" fill="#fff"/>
    <path id="Caminho_399" data-name="Caminho 399" d="M46.456,34.039l-2.4-1.8a20.35,20.35,0,0,0,1.2-4.674l2.96-.425a1.723,1.723,0,0,0,1.46-1.95l-1.1-7.667a1.723,1.723,0,0,0-1.95-1.46l-2.96.424A20.318,20.318,0,0,0,41.2,12.343L43,9.946a1.723,1.723,0,0,0-.346-2.41l-6.2-4.644a1.723,1.723,0,0,0-2.411.346l-1.8,2.4a20.3,20.3,0,0,0-4.675-1.2l-.424-2.96A1.722,1.722,0,0,0,25.2.017l-7.667,1.1a1.726,1.726,0,0,0-1.461,1.95l.426,2.959a20.367,20.367,0,0,0-4.149,2.465L9.948,6.7a1.725,1.725,0,0,0-2.412.346l-4.642,6.2a1.724,1.724,0,0,0,.345,2.411l2.4,1.794a20.28,20.28,0,0,0-1.2,4.675l-2.96.425A1.725,1.725,0,0,0,.017,24.5l1.1,7.666a1.72,1.72,0,0,0,1.95,1.461L6.029,33.2A20.405,20.405,0,0,0,8.493,37.35L6.7,39.747a1.722,1.722,0,0,0,.346,2.41l6.2,4.643a1.721,1.721,0,0,0,2.41-.346l1.795-2.4a20.324,20.324,0,0,0,4.675,1.2l.424,2.96a1.721,1.721,0,0,0,1.706,1.477,1.692,1.692,0,0,0,.244-.017l7.668-1.1a1.722,1.722,0,0,0,1.46-1.95L33.2,43.666A20.325,20.325,0,0,0,37.351,41.2l2.4,1.794a1.722,1.722,0,0,0,2.412-.345l4.642-6.2a1.722,1.722,0,0,0-.346-2.411m-5.543.152,2.1,1.573-2.578,3.443-2.1-1.573a1.721,1.721,0,0,0-2.172.087,16.976,16.976,0,0,1-5.445,3.234A1.725,1.725,0,0,0,29.6,42.819l.372,2.592-4.259.611-.372-2.592a1.722,1.722,0,0,0-1.6-1.474,16.994,16.994,0,0,1-6.136-1.573,1.723,1.723,0,0,0-2.107.529l-1.572,2.1-3.443-2.579,1.573-2.1a1.721,1.721,0,0,0-.086-2.17,16.981,16.981,0,0,1-3.236-5.446A1.723,1.723,0,0,0,6.876,29.6l-2.592.372-.611-4.257,2.592-.372a1.724,1.724,0,0,0,1.474-1.6,16.967,16.967,0,0,1,1.574-6.136A1.725,1.725,0,0,0,8.783,15.5l-2.1-1.573,2.579-3.443,2.1,1.573a1.723,1.723,0,0,0,2.172-.087,16.989,16.989,0,0,1,5.446-3.234,1.722,1.722,0,0,0,1.116-1.864l-.372-2.591,4.259-.612.371,2.592a1.721,1.721,0,0,0,1.6,1.474,16.993,16.993,0,0,1,6.135,1.572,1.723,1.723,0,0,0,2.109-.527l1.571-2.1,3.444,2.579-1.573,2.1a1.723,1.723,0,0,0,.086,2.171,16.966,16.966,0,0,1,3.235,5.446,1.723,1.723,0,0,0,1.864,1.116l2.592-.372.611,4.258-2.592.372a1.724,1.724,0,0,0-1.474,1.6,17.02,17.02,0,0,1-1.572,6.136,1.72,1.72,0,0,0,.527,2.107" transform="translate(0 0)" fill="#fff"/>
    <path id="Caminho_400" data-name="Caminho 400" d="M24.313,13.818a12.379,12.379,0,0,0,1.751,24.631,12.644,12.644,0,0,0,1.767-.126,12.379,12.379,0,1,0-3.518-24.506m3.029,21.1A8.934,8.934,0,0,1,24.8,17.227a9.061,9.061,0,0,1,1.277-.091,8.934,8.934,0,0,1,1.263,17.777" transform="translate(-1.224 -1.224)" fill="#fff"/>
  </g>
</svg>
