<svg id="Grupo_174" data-name="Grupo 174" xmlns="http://www.w3.org/2000/svg" xmlns:xlink="http://www.w3.org/1999/xlink" width="99.995" height="100" viewBox="0 0 99.995 100">
  <defs>
    <clipPath id="clip-path">
      <rect id="Retângulo_147" data-name="Retângulo 147" width="99.995" height="100" fill="none"/>
    </clipPath>
  </defs>
  <g id="Grupo_173" data-name="Grupo 173" clip-path="url(#clip-path)">
    <path id="Caminho_363" data-name="Caminho 363" d="M94.612,47.048c-4.164-.09-8.331-.035-12.5-.042h-1a1.627,1.627,0,0,1,0-.346c1.222-3.529.174-6-3.211-7.7a1.244,1.244,0,0,1-.516-.89A27.388,27.388,0,0,0,57.149,13.63c-1.833-.5-3.74-.735-5.633-1.1v-1.8h1.1c2.636,0,5.272,0,7.909,0,1.487,0,1.967-.493,1.97-2q.006-3.417,0-6.834C62.488.506,61.991.006,60.612,0Q55.584-.005,50.555,0c-1.565,0-2.016.452-2.02,2.042-.007,3.19,0,6.379-.005,9.569,0,.344-.03.689-.044.989-1.519.24-2.94.41-4.336.7a26.161,26.161,0,0,0-8.217,3.234c-.921.552-1.192,1.347-.744,2.112a1.508,1.508,0,0,0,2.214.415c.173-.091.339-.193.509-.289A24.546,24.546,0,0,1,73.371,32.665a19.337,19.337,0,0,1,1.052,5.993H73.288c-5.305,0-10.611-.048-15.915.029a6.977,6.977,0,0,1-4.3-1.152,5.135,5.135,0,0,0-6.2.014,6.224,6.224,0,0,1-1.185.673,4.983,4.983,0,0,1-1.652.418c-5.793.029-11.587.018-17.38.018H25.576c0-.351-.012-.577,0-.8.022-.324.054-.648.1-.97a24.311,24.311,0,0,1,6.942-14.1,2.16,2.16,0,0,0,.556-.782,1.349,1.349,0,0,0-.574-1.7,1.459,1.459,0,0,0-1.939.312,26.872,26.872,0,0,0-8.007,17.223,1.259,1.259,0,0,1-.866,1.292A4.957,4.957,0,0,0,18.543,43.1a22.572,22.572,0,0,0,.127,3.9h-.845c-3.938,0-7.876.016-11.814-.006a5.361,5.361,0,0,0-4.385,1.739A17.685,17.685,0,0,0,0,51.563v2.149c.576,1.708,1.395,3.368,3.181,3.926,1.519.474,1.582,1.333,1.578,2.622-.04,12.516-.018,25.032-.036,37.548A2.342,2.342,0,0,0,5.664,100h88.67a2.351,2.351,0,0,0,.94-2.2q-.025-19.187-.012-38.373v-1.17c.347-.109.626-.19.9-.284a5.674,5.674,0,0,0,3.826-5.059,5.522,5.522,0,0,0-5.377-5.87M51.53,3h7.982V7.726H51.53Zm9.093,38.6c5.14,0,10.281-.017,15.42.011A2.661,2.661,0,0,1,78.7,44.193a2.6,2.6,0,0,1-2.469,2.756c-2.077.1-4.163.046-6.245.047a.988.988,0,0,1-.466-.123q-4.484-2.538-8.96-5.09c.021-.063.042-.125.062-.188M21.3,44.073a2.669,2.669,0,0,1,2.578-2.464c1.724-.049,3.45-.02,5.175-.021q5.166,0,10.333,0c.015.067.029.134.044.2q-4.443,2.527-8.888,5.054a.8.8,0,0,1-.362.136c-2.275-.02-4.557.048-6.822-.12A2.5,2.5,0,0,1,21.3,44.073M5.623,55.312a2.676,2.676,0,1,1,.041-5.352c6.243-.033,12.486-.016,18.729-.013a2.38,2.38,0,0,1,.442.137c-1.168.672-2.17,1.274-3.2,1.831a5.172,5.172,0,0,0-2.513,2.857.989.989,0,0,1-.725.542c-4.259.029-8.519.042-12.778,0m2.1,10.139h4.356V90.258H7.723Zm14.52,24.721v.949c-1.627.45-1.779.656-1.781,2.342,0,1.164,0,2.328,0,3.549H7.718V93.249h5c2.061,0,2.353-.3,2.353-2.377q0-13.125,0-26.252c0-1.79-.368-2.153-2.172-2.155H7.748v-4.13c.277-.021.586-.063.895-.063,3.286-.005,6.572.015,9.857-.018a1.453,1.453,0,0,1,1.34.713,4.965,4.965,0,0,0,1.582,1.4,1.348,1.348,0,0,1,.84,1.407c-.029,9.466-.019,18.933-.019,28.4M21.926,56.7a1.855,1.855,0,0,1,1.138-2.223q3.042-1.749,6.1-3.477C35.6,47.34,42.05,43.7,48.468,40a2.74,2.74,0,0,1,3.071,0c8.37,4.8,16.766,9.56,25.152,14.334a5.623,5.623,0,0,1,.818.527,1.809,1.809,0,0,1-.974,3.156c-.356.031-.715.024-1.073.024H24.913c-.293,0-.586,0-.878,0-1.195-.017-1.863-.442-2.109-1.34M76.557,97.018H23.442V94.225H76.557ZM31.474,69.637a3.067,3.067,0,0,1,2.285-3.227,3.01,3.01,0,0,1,3.722,3.134c.014,6.052.005,12.1.005,18.155v3.5H31.545c-.026-.276-.071-.525-.071-.773q-.006-10.4,0-20.791m21.5,20.345v1.2H47.1a6.924,6.924,0,0,1-.078-.741c0-6.954-.032-13.91.036-20.864a4.17,4.17,0,0,1,.887-2.358,2.58,2.58,0,0,1,3.112-.689,2.806,2.806,0,0,1,1.9,2.493,10.329,10.329,0,0,1,.025,1.071q0,9.945,0,19.89m15.548,1.213H62.57c-.02-.286-.056-.565-.056-.845q0-10.347,0-20.693a3.064,3.064,0,0,1,2.259-3.242,3.012,3.012,0,0,1,3.747,3.108c.023,3.546.007,7.093.007,10.639V91.195m23.751,5.813H79.536c0-1.175,0-2.366,0-3.557,0-1.669-.135-1.848-1.78-2.347,0-2.615.035-5.25-.029-7.883a2.216,2.216,0,0,0-.661-1.49,1.479,1.479,0,0,0-1.407-.064,2.054,2.054,0,0,0-.794,1.412c-.083,2.276-.037,4.556-.038,6.835v1.243h-3.37V90.068c0-6.835.015-13.671-.006-20.506a5.935,5.935,0,1,0-11.863-.083c-.016,6.835-.005,13.671-.005,20.507v1.2H55.908v-1.19c0-6.836.021-13.671-.009-20.507a5.9,5.9,0,0,0-11.772-.708c-.07,1.3-.035,2.6-.036,3.9q0,8.642,0,17.284v1.208H40.416V90.012c0-6.868.024-13.736-.01-20.6a5.923,5.923,0,0,0-7.812-5.721,5.992,5.992,0,0,0-4.05,5.944q-.014,10.157,0,20.312v1.224h-3.3V61.023H74.775c.017.354.049.7.049,1.039,0,4.785,0,9.57.01,14.354,0,.415-.034.955.2,1.214.349.391.96.857,1.382.792.481-.074.946-.646,1.28-1.1.174-.238.06-.694.06-1.052,0-5.141,0-10.283,0-15.07,1.025-.992,1.841-1.8,2.678-2.58a1.086,1.086,0,0,1,.633-.331c3.677-.005,7.353.016,11.03.034.027,0,.054.03.158.092v4.053H88.1c-3.173,0-3.173,0-3.173,3.206q0,12.744,0,25.487c0,1.678.4,2.084,2.055,2.09,1.747.006,3.5,0,5.293,0Zm-.013-6.753H87.92v-24.8h4.345Zm4.786-37.373a2.6,2.6,0,0,1-2.41,2.4c-1.524.081-3.054.048-4.582.052-2.764,0-5.528-.009-8.292.009-.521,0-.8-.109-.974-.675a4.482,4.482,0,0,0-2.2-2.624c-1.1-.623-2.188-1.252-3.281-1.878.016-.078.033-.156.049-.234h.948q8.634,0,17.266.006a6.142,6.142,0,0,1,1.641.151,2.662,2.662,0,0,1,1.835,2.789" fill="#fff"/>
  </g>
</svg>
