<svg xmlns="http://www.w3.org/2000/svg" xmlns:xlink="http://www.w3.org/1999/xlink" width="52" height="38.529" viewBox="0 0 52 38.529">
  <defs>
    <clipPath id="clip-path">
      <rect id="Retângulo_182" data-name="Retângulo 182" width="52" height="38.529" fill="#fff"/>
    </clipPath>
  </defs>
  <g id="Grupo_226" data-name="Grupo 226" clip-path="url(#clip-path)">
    <path id="Caminho_427" data-name="Caminho 427" d="M26,38.529C17.64,32.6,0,23.331,0,13.084,0-2.418,22.32-4.979,26,9.912,29.68-4.979,52-2.418,52,13.084,52,23.331,34.36,32.6,26,38.529M9.672,18.857A13.21,13.21,0,0,1,7.647,16a6.871,6.871,0,0,1-.789-2.738A7.7,7.7,0,0,1,7.8,8.715a6.993,6.993,0,0,1,3.166-2.648A1.811,1.811,0,0,0,9.458,2.773,10.518,10.518,0,0,0,4.7,6.824,11.233,11.233,0,0,0,3.238,13.46a10.482,10.482,0,0,0,1.168,4.17,17.08,17.08,0,0,0,2.582,3.657,1.811,1.811,0,0,0,2.684-2.431m22.041-6.485A9.154,9.154,0,0,1,34.27,7.829,8.864,8.864,0,0,1,38.9,5.58,1.813,1.813,0,0,0,38.3,2a12.464,12.464,0,0,0-6.514,3.183,12.706,12.706,0,0,0-3.6,6.318,1.814,1.814,0,0,0,3.522.868" transform="translate(0 0)" fill="#fff" fill-rule="evenodd"/>
  </g>
</svg>
