<svg id="Grupo_182" data-name="Grupo 182" xmlns="http://www.w3.org/2000/svg" xmlns:xlink="http://www.w3.org/1999/xlink" width="99.974" height="100" viewBox="0 0 99.974 100">
  <defs>
    <clipPath id="clip-path">
      <rect id="Retângulo_151" data-name="Retângulo 151" width="99.974" height="100" fill="none"/>
    </clipPath>
  </defs>
  <g id="Grupo_181" data-name="Grupo 181" clip-path="url(#clip-path)">
    <path id="Caminho_388" data-name="Caminho 388" d="M99.939,53.789a3.053,3.053,0,0,0-.783-1.915q-3.784-3.944-7.732-7.73a3.222,3.222,0,0,0-1.919-.77c-1.869-.1-3.747-.039-5.621-.035-1.707,0-2.235.531-2.239,2.237s0,3.429,0,5.343c-.42-.4-.671-.62-.91-.858C78.769,48.1,76.842,46.1,74.815,44.2a3.61,3.61,0,0,0-2-.825,38.866,38.866,0,0,0-3.953-.036c-1.682.005-2.21.543-2.211,2.265q0,6.614,0,13.227v1.092h-5V58.6q0-12.342,0-24.684c0-1.707-.534-2.242-2.235-2.243q-7.706,0-15.412,0c-1.849,0-2.346.495-2.346,2.338q0,12.393,0,24.788v1.135H34.99v-1.3q0-12.395,0-24.789c0-1.945-1.1-2.622-2.856-1.766-1.234.6-2.461,1.218-3.807,1.884,0-4.014,0-7.863,0-11.711,0-1.707-.534-2.242-2.234-2.243q-7.707,0-15.412,0c-1.849,0-2.346.5-2.346,2.338,0,6.562-.061,13.124.044,19.684.024,1.517-.368,2.39-1.8,2.836-1.243.387-1.616,1.291-1.6,2.575C5.037,51.569,5,55.7,5,60c-1,0-1.891,0-2.784,0C.562,60.01,0,60.547,0,62.162Q0,80.024,0,97.886C0,99.433.581,100,2.158,100q47.848,0,95.7,0c1.548,0,2.115-.58,2.116-2.153q0-22.027-.032-44.056M45.07,35.077h13.2v4.875H45.07Zm13.2,11.541H45.07V43.409h13.2ZM45.062,50.05h13.2v9.871h-13.2ZM24.973,35.139a.963.963,0,0,1-.434.7c-4.225,2.146-8.465,4.263-12.808,6.44V30.08H24.992c0,1.736.019,3.4-.019,5.059M11.712,23.393h13.2V26.6h-13.2ZM8.954,47.377q11.067-5.5,22.113-11.041c.148-.074.308-.123.538-.212V59.963H8.331V56.425c0-2.636.011-5.272-.009-7.907a1.05,1.05,0,0,1,.632-1.141M53.272,96.611H16.746V80.075H53.272Zm13.325,0H56.651v-1.1q0-8.28,0-16.56c0-1.769-.52-2.287-2.3-2.287H15.62c-1.774,0-2.289.516-2.29,2.291q0,8.228,0,16.456V96.6H3.382V63.41H66.6Zm15.041-.325a2.833,2.833,0,0,1-.039.291H70.053v-49.8a3.774,3.774,0,0,1,4.085,1.347c2.228,2.426,4.642,4.681,6.949,7.036a1.845,1.845,0,0,1,.534,1.14q.039,19.992.017,39.985m15-.055a2.917,2.917,0,0,1-.064.387H85.034V46.674c1.332,0,2.639-.025,3.944.021a1.367,1.367,0,0,1,.765.446c2.144,2.123,4.283,4.252,6.394,6.408a1.7,1.7,0,0,1,.482,1.059q.034,20.814.015,41.628" fill="#fff"/>
    <path id="Caminho_389" data-name="Caminho 389" d="M11.671,14.688c-.015,1.225.647,1.974,1.654,1.977s1.659-.748,1.667-1.969c.013-1.979,0-3.958.005-5.937.008-3.332,2.065-5.41,5.372-5.416q5.936-.01,11.871,0,6.2,0,12.393,0c1.238,0,1.986-.623,2.012-1.624s-.725-1.7-1.932-1.7c-8.3-.007-16.592-.032-24.888.013a7.977,7.977,0,0,0-7.939,6.767,65.245,65.245,0,0,0-.215,7.895" fill="#fff"/>
    <path id="Caminho_390" data-name="Caminho 390" d="M26.446,6.7a4.9,4.9,0,0,0-4.762,4.624c-.067,1.21-.044,2.427-.011,3.64a1.656,1.656,0,1,0,3.31-.011c.036-.935.005-1.873.012-2.809.01-1.563.569-2.128,2.133-2.131q5.15-.009,10.3,0c3.571,0,7.143.01,10.715-.007a1.665,1.665,0,1,0,.046-3.317c-7.247-.012-14.495-.034-21.742.013" fill="#fff"/>
    <path id="Caminho_391" data-name="Caminho 391" d="M53.551,3.337c1.006.018,2.013,0,3.019,0,1.041,0,2.083.011,3.124,0,1.212-.017,1.962-.678,1.947-1.688A1.684,1.684,0,0,0,59.75.014q-3.125-.026-6.247,0A1.667,1.667,0,0,0,51.661,1.7a1.693,1.693,0,0,0,1.89,1.639" fill="#fff"/>
    <path id="Caminho_392" data-name="Caminho 392" d="M48.33,21.767c-.03,1.075-.007,2.152-.007,3.228s-.022,2.153.006,3.228a1.66,1.66,0,1,0,3.313.02q.042-3.228,0-6.456a1.66,1.66,0,1,0-3.313-.02" fill="#fff"/>
    <path id="Caminho_393" data-name="Caminho 393" d="M58.31,21.815a1.666,1.666,0,1,0-3.318.029q-.031,3.176,0,6.352a1.662,1.662,0,0,0,1.62,1.8,1.68,1.68,0,0,0,1.7-1.831c.024-1.041.005-2.083.005-3.124,0-1.076.02-2.152-.006-3.228" fill="#fff"/>
    <path id="Caminho_394" data-name="Caminho 394" d="M53.461,6.676a2.055,2.055,0,0,0-.208.007A1.668,1.668,0,0,0,51.662,8.3a1.61,1.61,0,0,0,1.516,1.677,30.088,30.088,0,0,0,3.641-.007,1.539,1.539,0,0,0,1.483-1.6A1.611,1.611,0,0,0,56.791,6.7c-.585-.054-1.179-.011-1.768-.011v-.01H53.461" fill="#fff"/>
    <path id="Caminho_395" data-name="Caminho 395" d="M69.828,9.978a30.714,30.714,0,0,0,3.641,0A1.541,1.541,0,0,0,74.964,8.39a1.611,1.611,0,0,0-1.5-1.692c-.584-.056-1.179-.011-1.769-.011a16.227,16.227,0,0,0-1.872.014A1.573,1.573,0,0,0,68.331,8.29a1.585,1.585,0,0,0,1.5,1.688" fill="#fff"/>
    <path id="Caminho_396" data-name="Caminho 396" d="M59.993,8.362a1.658,1.658,0,0,0,1.575,1.632,7.713,7.713,0,0,0,.833,0A9.726,9.726,0,0,0,63.44,9.99a1.654,1.654,0,0,0,1.534-1.671A1.637,1.637,0,0,0,63.4,6.692a11.818,11.818,0,0,0-1.872,0,1.631,1.631,0,0,0-1.532,1.666" fill="#fff"/>
  </g>
</svg>
