<svg xmlns="http://www.w3.org/2000/svg" xmlns:xlink="http://www.w3.org/1999/xlink" width="85" height="74.715" viewBox="0 0 85 74.715">
  <defs>
    <clipPath id="clip-path">
      <rect id="Retângulo_165" data-name="Retângulo 165" width="85" height="74.715" fill="none"/>
    </clipPath>
  </defs>
  <g id="Grupo_188" data-name="Grupo 188" clip-path="url(#clip-path)">
    <path id="Caminho_403" data-name="Caminho 403" d="M83.425,34.693c-1.165-1.3-2.369-2.556-3.559-3.83q-9.259-9.92-18.518-19.838a2.515,2.515,0,0,0-2.955-.9,2.55,2.55,0,0,0-1.611,2.713c0,2.074,0,4.15,0,6.224,0,.267-.024.533-.04.853h-.962c-3.818,0-7.636-.014-11.453.014a2.006,2.006,0,0,1-1.592-.642Q33.69,10.2,24.611,1.145A3.1,3.1,0,0,0,22.4,0Q12.437,0,2.478.009A2.354,2.354,0,0,0,.212,1.545,2.485,2.485,0,0,0,2.687,4.976c5.865.011,11.73.018,17.6-.012a2.379,2.379,0,0,1,1.877.763q8.976,9.039,18,18.034a3.168,3.168,0,0,0,2.3,1.142c5.588-.008,11.176,0,16.765-.011a2.465,2.465,0,0,0,2.531-2.517c.023-.94,0-1.881.009-2.821,0-.192.039-.385.075-.705L79.1,37.349,61.762,55.93c0-1.223,0-2.208,0-3.191,0-2-.949-2.94-2.949-2.94-5.256,0-10.513.026-15.769-.021a3.9,3.9,0,0,0-3.005,1.267c-5.987,6.025-12.007,12.015-18,18.037a2.02,2.02,0,0,1-1.591.648c-5.892-.024-11.784-.007-17.678-.02A2.536,2.536,0,0,0,.23,71.219a2.488,2.488,0,0,0,2.494,3.474c6.308.009,12.616-.019,18.924.022a4,4,0,0,0,3.089-1.27q9.033-9.1,18.137-18.131a1.9,1.9,0,0,1,1.2-.514c3.983-.038,7.967-.024,11.951-.021.238,0,.476.031.757.049,0,.363,0,.664,0,.965,0,2.158-.012,4.316.007,6.474A2.484,2.484,0,0,0,61,64.026c.2-.187.386-.4.574-.6q10.9-11.678,21.8-23.364c.593-.637,1.089-1.364,1.63-2.05V36.684c-.522-.666-1.011-1.363-1.575-1.991" transform="translate(0 0)" fill="#fff"/>
    <path id="Caminho_404" data-name="Caminho 404" d="M2,41.771a5.188,5.188,0,0,0,1.072.061q16.1,0,32.188,0h.862l.108.222c-.718.677-1.457,1.336-2.152,2.037a2.49,2.49,0,1,0,3.476,3.553q3.25-3.2,6.454-6.453a2.455,2.455,0,0,0,.009-3.689q-3.2-3.252-6.453-6.453a2.49,2.49,0,1,0-3.5,3.532c.695.706,1.434,1.368,2.154,2.051-.045.073-.089.146-.133.219H3.171c-.249,0-.5-.009-.746,0A2.481,2.481,0,0,0,2,41.771" transform="translate(-0.001 -1.996)" fill="#fff"/>
    <path id="Caminho_405" data-name="Caminho 405" d="M16.937,17.3c-4.7,0-9.4-.013-14.1.018a3.682,3.682,0,0,0-1.654.4,2.355,2.355,0,0,0-1.07,2.718,2.476,2.476,0,0,0,2.544,1.842q7.175.013,14.35,0h.886c-.037.141-.035.172-.05.188-.676.691-1.359,1.377-2.031,2.071a2.509,2.509,0,0,0-.143,3.632,2.481,2.481,0,0,0,3.629-.082q3.249-3.2,6.452-6.451a2.453,2.453,0,0,0,.007-3.688q-3.2-3.252-6.451-6.452a2.49,2.49,0,1,0-3.5,3.53c.7.706,1.435,1.37,2.154,2.053l-.129.219Z" transform="translate(-0.001 -0.704)" fill="#fff"/>
    <path id="Caminho_406" data-name="Caminho 406" d="M2.673,61.38c4.783.014,9.566,0,14.349,0h.851l.083.219c-.719.684-1.458,1.35-2.154,2.056a2.491,2.491,0,1,0,3.507,3.524q3.218-3.174,6.395-6.391a2.491,2.491,0,0,0-.015-3.81q-3.151-3.183-6.336-6.333a2.494,2.494,0,1,0-3.536,3.5c.695.7,1.434,1.36,2.153,2.037l-.148.222h-.9q-7.091,0-14.184,0A2.535,2.535,0,0,0,.367,57.644,2.479,2.479,0,0,0,2.673,61.38" transform="translate(0 -3.287)" fill="#fff"/>
  </g>
</svg>
