<svg xmlns="http://www.w3.org/2000/svg" xmlns:xlink="http://www.w3.org/1999/xlink" width="59.937" height="49" viewBox="0 0 59.937 49">
  <defs>
    <clipPath id="clip-path">
      <rect id="Retângulo_181" data-name="Retângulo 181" width="59.937" height="49" fill="#fff"/>
    </clipPath>
  </defs>
  <g id="Grupo_224" data-name="Grupo 224" clip-path="url(#clip-path)">
    <path id="Caminho_426" data-name="Caminho 426" d="M22.1,41.82a3.551,3.551,0,0,0-2.536,1.05l-.007,0a3.589,3.589,0,0,0-.046,5.025h0l.049.051A3.569,3.569,0,0,0,22.1,49a3.642,3.642,0,0,0,1.376-.27A3.6,3.6,0,0,0,24.595,48v0l.049-.049a3.614,3.614,0,0,0,.779-1.165,3.616,3.616,0,0,0,0-2.749,3.6,3.6,0,0,0-.775-1.166h0A3.567,3.567,0,0,0,22.1,41.82M45.635,28.6a14.3,14.3,0,1,0-14.3-14.3,14.3,14.3,0,0,0,14.3,14.3M43.3,22.638V16.433h-6A1.834,1.834,0,0,1,35.464,14.6V14A1.834,1.834,0,0,1,37.3,12.17h6V5.964A1.834,1.834,0,0,1,45.129,4.13h.927A1.841,1.841,0,0,1,47.89,5.964V12.17h6.082A1.834,1.834,0,0,1,55.8,14v.6a1.835,1.835,0,0,1-1.829,1.833H47.89v6.206a1.841,1.841,0,0,1-1.834,1.834h-.927A1.837,1.837,0,0,1,43.3,22.638m2.927,8.454v2.682c.143-.086.285-.18.418-.275l.011-.007.009-.007c.278-.263.537-.511.781-.759a9.23,9.23,0,0,0,.666-.749,5.989,5.989,0,0,0,.539-.825c.06-.113.12-.233.173-.352A16.7,16.7,0,0,0,53.2,29.306l-.641,1.963a11.058,11.058,0,0,1-.627,1.514,10.781,10.781,0,0,1-.846,1.387A10.328,10.328,0,0,1,50.038,35.4a10.086,10.086,0,0,1-1.221,1.041,9.944,9.944,0,0,1-1.374.839,10.29,10.29,0,0,1-1.5.613l-.053.014a9.848,9.848,0,0,1-1.529.358,10.924,10.924,0,0,1-1.63.127h-24.6v-.011l-.174.011a1.862,1.862,0,0,0-.89.278,2,2,0,0,0-.673.675,1.51,1.51,0,0,0-.129.271,1.069,1.069,0,0,0-.06.277.767.767,0,0,0,.014.238.693.693,0,0,0,.083.22,1.086,1.086,0,0,0,.58.437,3.159,3.159,0,0,0,.948.178.927.927,0,0,1,.553.157.45.45,0,0,1,.116.374.725.725,0,0,1-.113.322,4.215,4.215,0,0,1-.291.421,6.6,6.6,0,0,0-.74,1.174,4.223,4.223,0,0,0-.425,1.847v0l0,.185v.016l.007.153,0,.033v0l.033.414-.416-.063c-.271-.042-.53-.093-.772-.152s-.493-.137-.726-.217l-.026-.009h0c-.226-.083-.441-.173-.647-.27a6.359,6.359,0,0,1-.624-.338A5.815,5.815,0,0,1,13,44.454a5.121,5.121,0,0,1-.636-.663,4.894,4.894,0,0,1-.5-.756v0A4.943,4.943,0,0,1,11.5,42.2a5.542,5.542,0,0,1-.192-.851,5.226,5.226,0,0,1-.046-.881,5.653,5.653,0,0,1,.1-.9,6.449,6.449,0,0,1,.243-.9,6.054,6.054,0,0,1,.257-.634c.1-.211.21-.425.329-.633.1-.162.2-.335.319-.507s.234-.338.363-.5l.055-.069-.03-.086c-.252-.751-.5-1.492-.721-2.222s-.441-1.429-.64-2.092c-.2-.68-.4-1.376-.587-2.06-.2-.724-.377-1.351-.539-1.942-.465-1.688-.879-3.182-1.33-4.518a17.882,17.882,0,0,0-1.558-3.528,10.085,10.085,0,0,0-2.284-2.666,14.123,14.123,0,0,0-3.58-2.062l-.067-.03a2.5,2.5,0,0,1-.835-.553A2.589,2.589,0,0,1,0,12.8a2.5,2.5,0,0,1,.159-.937l.011-.03v-.018L.2,11.761l0-.011a2.564,2.564,0,0,1,1.385-1.385,2.567,2.567,0,0,1,1.97-.005,26.69,26.69,0,0,1,2.6,1.228,17.321,17.321,0,0,1,2.111,1.344,13.589,13.589,0,0,1,1.618,1.4,12.738,12.738,0,0,1,1.313,1.542l.051.067H28.912a16.734,16.734,0,0,0,.779,3.667h-.007v6.451h3.949l.123.122a16.79,16.79,0,0,0,4.2,3.068v5.48h4.78a7.572,7.572,0,0,0,.828-.048c.15-.019.3-.042.448-.069V31.026c.534.049,1.078.076,1.625.076.2,0,.391,0,.59-.009M35.739,34.726H29.683V28.275h6.056Zm-8.271-6.453H21.412v6.451h6.056Zm-8.271,0H15.876c.278,1.048.569,2.1.888,3.14.331,1.08.7,2.155,1.121,3.205l.044.107H19.2Zm-3.912-2.217H19.2V19.606H13.21l.09.229c.441,1.1.819,2.213,1.161,3.33.291.955.56,1.922.825,2.891m6.127,0h6.056V19.606H21.412Zm4.476,14.91,12.457,0a.477.477,0,0,1,.432.271.466.466,0,0,1-.06.5,6,6,0,0,0-1.327,3.771c0,.208.014.418.03.622H26.809c.019-.2.03-.414.03-.622a6.192,6.192,0,0,0-1.33-3.776.482.482,0,0,1,.379-.774m22.184,0H46.327a.948.948,0,0,0-.553.123.411.411,0,0,0-.129.344,1.346,1.346,0,0,0,.381.714l0,.007a6.476,6.476,0,0,1,.768,1.179,4.36,4.36,0,0,1,.446,1.924V45.4l0,.113v.007l-.011.122v.007l-.009.12v0l-.041.368h.892a2.57,2.57,0,0,0,1.824-.758,2.583,2.583,0,0,0-1.824-4.41m-5.977.849a3.629,3.629,0,0,0-1.376.271,3.588,3.588,0,0,0-1.163.779h0a3.6,3.6,0,0,0,0,5.08l.005,0a3.606,3.606,0,0,0,3.91.779,3.551,3.551,0,0,0,1.163-.779l0,0a3.589,3.589,0,0,0-2.539-6.13" transform="translate(0 0)" fill="#fff" fill-rule="evenodd"/>
  </g>
</svg>
