<svg id="Grupo_187" data-name="Grupo 187" xmlns="http://www.w3.org/2000/svg" xmlns:xlink="http://www.w3.org/1999/xlink" width="68.847" height="80" viewBox="0 0 68.847 80">
  <defs>
    <clipPath id="clip-path">
      <rect id="Retângulo_164" data-name="Retângulo 164" width="68.847" height="80" fill="none"/>
    </clipPath>
  </defs>
  <g id="Grupo_186" data-name="Grupo 186" clip-path="url(#clip-path)">
    <path id="Caminho_401" data-name="Caminho 401" d="M68.8,9.564a3.1,3.1,0,0,0-2.121-3.141A98.874,98.874,0,0,0,42.336.462C40.788.288,39.236.153,37.686,0H31.118c-1.524.15-3.05.285-4.573.454a99.77,99.77,0,0,0-24.2,5.883A3.174,3.174,0,0,0,0,9.8Q0,20.233,0,30.669A50.213,50.213,0,0,0,2.416,46.51Q10.134,69.865,32.75,79.635a3.966,3.966,0,0,0,3.3.009A52.02,52.02,0,0,0,55.79,65.455a51.856,51.856,0,0,0,12.97-33.534c.167-7.449.039-14.9.042-22.357M62.549,23.482h-.127c0,3.491.186,6.994-.034,10.47A45.315,45.315,0,0,1,50.732,61.8,45.972,45.972,0,0,1,35.154,73.221a1.536,1.536,0,0,1-1.455.017C18.789,66.12,9.782,54.472,6.893,38.19a47.043,47.043,0,0,1-.61-7.542c-.086-6.1-.019-12.2-.042-18.294A.907.907,0,0,1,6.957,11.3a98.034,98.034,0,0,1,20.749-4.69,66.5,66.5,0,0,1,18.141.642,102.2,102.2,0,0,1,15.878,4,1,1,0,0,1,.843,1.128c-.041,3.7-.019,7.4-.019,11.1" transform="translate(0)" fill="#fff"/>
    <path id="Caminho_402" data-name="Caminho 402" d="M55.54,29.833a3.157,3.157,0,0,0-3.25,1.013Q44.5,38.648,36.707,46.44c-.22.22-.4.483-.731.9-.315-.386-.478-.624-.677-.825q-3.173-3.184-6.355-6.359a3.112,3.112,0,0,0-2.975-.992A2.987,2.987,0,0,0,23.6,41.307a3.032,3.032,0,0,0,.86,3.217q4.415,4.43,8.842,8.846c1.835,1.834,3.486,1.834,5.322,0q8.9-8.9,17.8-17.8a9.007,9.007,0,0,0,.748-.8,3.1,3.1,0,0,0-1.637-4.938" transform="translate(-4.69 -5.942)" fill="#fff"/>
  </g>
</svg>
