<svg id="Grupo_166" data-name="Grupo 166" xmlns="http://www.w3.org/2000/svg" xmlns:xlink="http://www.w3.org/1999/xlink" width="392.245" height="393.841" viewBox="0 0 392.245 393.841">
  <defs>
    <clipPath id="clip-path">
      <rect id="Retângulo_74" data-name="Retângulo 74" width="392.245" height="393.841" fill="#cad1dc"/>
    </clipPath>
  </defs>
  <g id="Grupo_165" data-name="Grupo 165" clip-path="url(#clip-path)">
    <path id="Caminho_197" data-name="Caminho 197" d="M108.291,22l13.928.077L132.7,12.459Zm35.76.2,49.968.275L185,1.853,151.253,6.418Zm43.4-19.807,44.523,20.221,4.623-8.561Zm7.083,20.085,36.441.2-45.369-20.6ZM237.3,13.728l49.8,11.816L240.851,7.16ZM232.459,22.7l55.006,3.412L237.073,14.158Zm-124.216-.234,9.293,3.9,4.172-3.827Zm-.908.131,1.256,11.973,8.563-7.853Zm10.679,3.971,19.741,8.287,5.566-12.2-20.92-.113Zm115.643-3.322L270.275,36.8l19.067-10.1Zm37.211,13.778,19.451,7.2-.357-17.318ZM290.794,44.4l43.252,16.013L290.437,27ZM62.782,53.178l12.2,8.156,30.852-37.976ZM75.373,61.6l2.162,1.444,30.622-28.078-1.271-12.152ZM290.806,44.909l.372,18.155L334.265,61ZM194.741,22.942,213.76,66.414l17.965-43.269Zm37.469.269L214.237,66.5l55.484-29.4Zm-94.02,11.825L213.315,66.57,194.226,22.938l-50.388-.276Zm132.122,2.283-55.5,29.409,75.9-3.64-.378-18.357ZM75.075,61.966,64.454,75.039,77.178,63.371Zm140.386,5.2,75.7,17.7-.438-21.306ZM108.65,35.153l5.4,51.615L137.56,35.282l-19.928-8.363ZM77.938,63.312l35.685,23.866-5.4-51.629Zm60.056-27.848L114.316,87.327l98.659-20.39ZM62.48,53.543,49.657,88.606,62.075,77.218,74.682,61.7ZM291.632,84.975l27.362,6.4,16.032-29.938-43.835,2.1ZM31.493,90.205l11.13,4.85L48.9,89.3,61.683,54.353Zm17.812-.637L47.063,95.7,60.04,79.724ZM319.47,91.482l19.953,4.666-4.136-34.2ZM43.1,95.259l3.126,1.363,2.329-6.363ZM62.419,77.543l-15.5,19.081,66.347-9.12L77.581,63.64Zm52.45,10.151,44.1,13.231,53.556-33.414Zm225.043,8.567,24.7,5.775-28.842-39.98ZM31.317,90.641l-1.434,16.1L42.245,95.4Zm-1.5,16.792-.186,2.081L45.9,96.994l-3.181-1.386Zm84.862-19.3L138.646,113.6l19.791-12.347Zm225.288,8.628,2.145,17.716,22.4-11.977ZM159.57,101.1l45.435,13.632,8.436-47.243Zm-130.264,6.8L16.623,119.533l12.5-9.627Zm1.475-16.556-17.4,30.518,15.99-14.659Zm-17.821,31.6,14.682,3.623,1.428-16.028ZM291.641,85.461l1.131,54.885L318.765,91.8Zm27.6,6.451L293.125,140.68l48.545-25.966-2.187-18.069ZM214.565,67.442l77.741,73.252-1.137-55.344Zm-9.1,47.432,86.208,25.864L213.922,67.484Zm-91.467-26.79L92.808,142.2l45.429-28.345ZM28.1,126.685l63.458,15.663L46.337,97.25l-16.76,12.9ZM46.861,97.106l45.381,45.252,21.3-54.418Zm319.08,7.88,9.521,46.381,7.325-3.94Zm-72.787,36.209,53.8,17.194-5.226-43.173Zm54.3,17.353,2.331.745,15.026-56.421-22.629,12.106Zm2.78.887,6.417,2.052L375.03,151.6l-9.886-48.163Zm-2.719-.372.728,6.019,1.421-5.334Zm2.6.829-1.588,5.965,7.549-4.061ZM296.4,142.727l51.467,23.209-.851-7.033Zm60.868,18.958,21.224,6.783-3.364-16.387ZM138.975,113.953l55.613,59.124L204.923,115.2l-45.884-13.766ZM92.895,142.7l101.068,30.4-55.4-58.892ZM205.376,115.34l-10.337,57.894,96.733-31.974ZM12.733,123.377l10.516,52.481L27.6,127.046Zm15.329,3.782L23.612,177.1l68.043-34.249Zm-26.189,43.3,21.156,6.7L12.414,124.183Zm291.148-28.744L313.566,187.8l34.091-21.448ZM92.916,143.2l32.018,45.285L193.8,173.542Zm-.4.248L88.16,201.985l36.3-13.35ZM1.964,170.985,13.2,205.032l9.84-27.377ZM125.277,188.9l16.915,18.776,51.35-33.592ZM292.62,141.976l-16.758,69.55,37.3-23.468Zm-97.252,31.645,79.97,38.073L292.227,141.6Zm183.745-4.458,8.767,42.7-.465-40.047Zm-30.6-2.771,39.206,47.057L378.6,169l-21.907-7Zm-324.8,11.184,32.555,36.13,31.4-11.545,4.389-58.986Zm101.428,11.877,3.114,27.333,13.532-8.853ZM348.5,167.112l7.5,51.848,31.69-4.81Zm-34.744,21.126,15.331,34.393,18.63-55.759Zm-37.641,23.683,52.6,11.032-15.364-34.462Zm71.944-44.584-18.6,55.653,26.075-3.957ZM13.436,205.758,20.407,226.9,55.8,213.882,23.427,177.955ZM1.874,172.212,3.433,232.2l9.5-26.45Zm11.3,34.266L3.623,233.066l16.343-6.008Zm-9,26.888,18.791,2.8-2.855-8.657ZM329.8,223.414l28.881,17.341L355.61,219.5ZM124.669,189.392,85.574,244.72l42.248-27.648ZM88.12,202.5l-3.145,42.249L124.2,189.233ZM56.615,214.085l27.871,30.927,3.151-42.334ZM23.491,236.238l60.574,9.012L56.14,214.258,20.555,227.343Zm335.717,4.833,17.508,10.51,11.1-36.971-31.739,4.819Zm17.923,10.76,3.041,1.824,6.81-34.644Zm-47.9-28.209L310.574,266.9l50.457-9.928-2.258-15.611ZM3.809,233.786l30.3,36.146-10.975-33.27Zm271.956-21.458,5.921,60.255,28.328-5.576,18.779-43.557ZM85.1,245.584,135,280.075,127.881,217.6Zm-.148.472,3.041,36.931,46.6-2.621Zm-50.027,24.85,11.965,14.273L84.2,245.746l-60.543-9.007Zm49.559-24.791L47.458,285.267l40.068-2.252Zm58.028-38.091,69.915,77.61L194.56,173.976ZM35.326,272.119,39.807,285.7l6.593-.378ZM195.04,173.986l17.9,111.855,62.185-73.728Zm80.279,38.625L213.4,286.023l67.826-13.348ZM135.505,280.344l76.713,5.762-70.1-77.819-13.791,9.022ZM3.9,234.631,22.7,286.678l16.625-.949-4.813-14.588Zm355.391,7.039,2.237,15.45,4.606,29.7,10.437-34.777Zm1.908,16.412-14.035,37.749,18.635-8.087ZM23.3,287.116,43.92,299.675l-4.447-13.48Zm21.239,12.935,5.222,3.181-3.078-17.451-6.728.384Zm237.19-27,4.767,48.5,23.29-54.019Zm28.618-5.631-23.543,54.607,59.76-25.937,14.363-38.625Zm-96.833,19.06,72.562,35.6-4.81-48.939Zm-.38.336,9.4,37.551,62.868-2.091Zm-.478.029L174.03,325.98l48.023-1.6Zm-77.143-6.031-2.868,46.539,40.7-1.354,38.914-39.419ZM50.3,303.559l39.585,24.109L47.239,286.213Zm-2.868-17.818,43.83,42.608-3.7-44.866Zm40.606-2.283,3.7,44.939,43-47.566Zm46.982-2.237L92.092,328.7l40.082-1.331ZM44.768,300.742l9.79,29.677-4.687-26.569Zm302.171-4.3L334.2,330.715l31.16-42.265ZM287.131,322.4l46.109,9.529,13.1-35.228ZM23.378,287.713l31.258,44.444L44.148,300.364Zm27.03,16.464,5.144,29.153,35.3-4.522ZM286.58,322.77l-.516,15.519,45.922-6.138Zm-.484.436L273.15,340.014l12.44-1.663Zm-63.444,1.628,5.309,21.218,44.527-5.95,13.377-17.368ZM56.544,333.678l48.261,13.39-13.365-17.86Zm35.846-4.512,38.337,21.707,1.419-23.032Zm13.158,18.108,24.971,6.929.175-2.807L92.407,329.717Zm25.438,7.058,9.588,2.659-9.425-5.338Zm42.562-27.865L143.007,357.4l84.484-11.29-5.32-21.264Zm-42.365,24.666,11.132,6.305,30.549-30.946-40.247,1.336Zm154.865-12.367-.666,20.008L332.2,332.6Zm-.685,20.557-.286,8.579,45.285-33.736ZM56.883,334.261l71.395,44.169-23.011-30.747Zm49.125,13.628,23.007,30.743,1.475-23.948Zm166.734-7.346-34.21,44.421,46.37-25.924.672-20.212Zm-44.667,5.969,9.681,38.688,34.324-44.569Zm-84.589,11.3,93.832,27.573-9.713-38.815ZM129.457,379.1l46.533,10.23-33.752-31.388-11.284-3.13Zm47.326,10.881a.254.254,0,0,1-.052-.006l-47.568-10.456-.042-.013a.19.19,0,0,1-.038-.021L55.236,333.795a.144.144,0,0,1-.038-.031h0l0,0,0,0h0l0,0v0l-.025-.031L22.343,287.062a.354.354,0,0,1-.025-.046l0-.013L3.008,233.544v-.006l0-.006v0l0,0v-.006a.2.2,0,0,1-.008-.058L1.361,170.632a.172.172,0,0,1,0-.044v0l0-.019L12.2,123.01a.219.219,0,0,1,.025-.067L30.908,90.178l.008-.012v0l0,0,.015-.019L62.183,53.03a.217.217,0,0,1,.05-.044l44.69-30.952.031-.017v0l.025-.01,26.728-10.443a.231.231,0,0,1,.286.094.235.235,0,0,1-.042.3L122.912,22.076l20.625.113,7.342-16.084a.233.233,0,0,1,.182-.134l34.051-4.608a.069.069,0,0,1,.04,0,.242.242,0,0,1,.052.008l51.625,12.248,3.709-6.864a.235.235,0,0,1,.294-.108L290.28,26.3l.012.006h0a.269.269,0,0,1,.046.029l45.229,34.652c.012.012.025.021.035.033v0l.017.021,29.741,41.226.017.025,0,0,.013.031,17.91,45.122a.236.236,0,0,1-.107.294l-7.634,4.1,3.444,16.787,8.713,2.784a.241.241,0,0,1,.165.223l.5,42.672,0,.031,0,.027-7.807,39.705a.232.232,0,0,1-.134.169.229.229,0,0,1-.217-.013l-3.224-1.935-10.7,35.658-.008.017v0a.172.172,0,0,1-.033.058l-32.665,44.306a.193.193,0,0,1-.036.042l0,0,0,0,0,0h0l0,0,0,0-.008.006-48.562,36.178a.227.227,0,0,1-.25.019.234.234,0,0,1-.127-.217l.294-8.782-47.12,26.344a.235.235,0,0,1-.186.019l-94.327-27.719,33.694,31.334a.234.234,0,0,1,.048.282.229.229,0,0,1-.207.127" transform="translate(1.252 1.25)" fill="#cad1dc"/>
    <path id="Caminho_198" data-name="Caminho 198" d="M60.626,13.59a2.848,2.848,0,1,1-2.849-2.847,2.847,2.847,0,0,1,2.849,2.847" transform="translate(50.534 9.884)" fill="#cad1dc"/>
    <path id="Caminho_199" data-name="Caminho 199" d="M73.539,7.825a2.166,2.166,0,1,1-2.168-2.166,2.168,2.168,0,0,1,2.168,2.166" transform="translate(63.671 5.206)" fill="#cad1dc"/>
    <path id="Caminho_200" data-name="Caminho 200" d="M11.339,66.108a2.848,2.848,0,1,1-2.849-2.847,2.848,2.848,0,0,1,2.849,2.847" transform="translate(5.191 58.2)" fill="#cad1dc"/>
    <path id="Caminho_201" data-name="Caminho 201" d="M5.7,90.88a2.848,2.848,0,1,1-2.849-2.847A2.847,2.847,0,0,1,5.7,90.88" transform="translate(0 80.99)" fill="#cad1dc"/>
    <path id="Caminho_202" data-name="Caminho 202" d="M33.7,175.762a2.848,2.848,0,1,1-2.849-2.847,2.847,2.847,0,0,1,2.849,2.847" transform="translate(25.76 159.081)" fill="#cad1dc"/>
    <path id="Caminho_203" data-name="Caminho 203" d="M79.01,188.333a2.848,2.848,0,1,1-2.849-2.847,2.848,2.848,0,0,1,2.849,2.847" transform="translate(67.448 170.646)" fill="#cad1dc"/>
    <path id="Caminho_204" data-name="Caminho 204" d="M52.545,173.347A2.848,2.848,0,1,1,49.7,170.5a2.848,2.848,0,0,1,2.849,2.847" transform="translate(43.1 156.859)" fill="#cad1dc"/>
    <path id="Caminho_205" data-name="Caminho 205" d="M154.009,169.975a2.848,2.848,0,1,1-2.849-2.847,2.847,2.847,0,0,1,2.849,2.847" transform="translate(136.446 153.757)" fill="#cad1dc"/>
    <path id="Caminho_206" data-name="Caminho 206" d="M176.284,118.307a2.848,2.848,0,1,1-2.849-2.847,2.849,2.849,0,0,1,2.849,2.847" transform="translate(156.939 106.223)" fill="#cad1dc"/>
    <path id="Caminho_207" data-name="Caminho 207" d="M148.355,112.448a2.848,2.848,0,1,1-2.849-2.847,2.847,2.847,0,0,1,2.849,2.847" transform="translate(131.245 100.832)" fill="#cad1dc"/>
    <path id="Caminho_208" data-name="Caminho 208" d="M154.009,169.975a2.848,2.848,0,1,1-2.849-2.847,2.847,2.847,0,0,1,2.849,2.847" transform="translate(136.446 153.757)" fill="#cad1dc"/>
    <path id="Caminho_209" data-name="Caminho 209" d="M115.692,151.174a2.848,2.848,0,1,1-2.849-2.847,2.847,2.847,0,0,1,2.849,2.847" transform="translate(101.195 136.46)" fill="#cad1dc"/>
    <path id="Caminho_210" data-name="Caminho 210" d="M193.041,135.95a2.848,2.848,0,1,1-2.849-2.847,2.849,2.849,0,0,1,2.849,2.847" transform="translate(172.355 122.454)" fill="#cad1dc"/>
    <path id="Caminho_211" data-name="Caminho 211" d="M186.195,88.641a2.848,2.848,0,1,1-2.847-2.847,2.846,2.846,0,0,1,2.847,2.847" transform="translate(166.057 78.93)" fill="#cad1dc"/>
    <path id="Caminho_212" data-name="Caminho 212" d="M207.025,113.64a2.848,2.848,0,1,1-2.849-2.847,2.848,2.848,0,0,1,2.849,2.847" transform="translate(185.221 101.929)" fill="#cad1dc"/>
    <path id="Caminho_213" data-name="Caminho 213" d="M176.284,118.307a2.848,2.848,0,1,1-2.849-2.847,2.849,2.849,0,0,1,2.849,2.847" transform="translate(156.939 106.223)" fill="#cad1dc"/>
    <path id="Caminho_214" data-name="Caminho 214" d="M201.939,133.994a2.159,2.159,0,1,1-2.16-2.16,2.16,2.16,0,0,1,2.16,2.16" transform="translate(181.81 121.287)" fill="#cad1dc"/>
    <path id="Caminho_215" data-name="Caminho 215" d="M207.025,113.64a2.848,2.848,0,1,1-2.849-2.847,2.848,2.848,0,0,1,2.849,2.847" transform="translate(185.221 101.929)" fill="#cad1dc"/>
    <path id="Caminho_216" data-name="Caminho 216" d="M195.524,151.956a2.848,2.848,0,1,1-2.849-2.847,2.848,2.848,0,0,1,2.849,2.847" transform="translate(174.64 137.179)" fill="#cad1dc"/>
    <path id="Caminho_217" data-name="Caminho 217" d="M193.041,135.95a2.848,2.848,0,1,1-2.849-2.847,2.849,2.849,0,0,1,2.849,2.847" transform="translate(172.355 122.454)" fill="#cad1dc"/>
    <path id="Caminho_218" data-name="Caminho 218" d="M178.507,175.037a2.848,2.848,0,1,1-2.849-2.847,2.848,2.848,0,0,1,2.849,2.847" transform="translate(158.984 158.414)" fill="#cad1dc"/>
    <path id="Caminho_219" data-name="Caminho 219" d="M196,152.113a3.174,3.174,0,1,1-3.174-3.174A3.174,3.174,0,0,1,196,152.113" transform="translate(174.483 137.023)" fill="#cad1dc"/>
    <path id="Caminho_220" data-name="Caminho 220" d="M154.009,169.975a2.848,2.848,0,1,1-2.849-2.847,2.847,2.847,0,0,1,2.849,2.847" transform="translate(136.446 153.757)" fill="#cad1dc"/>
    <path id="Caminho_221" data-name="Caminho 221" d="M178.507,175.037a2.848,2.848,0,1,1-2.849-2.847,2.848,2.848,0,0,1,2.849,2.847" transform="translate(158.984 158.414)" fill="#cad1dc"/>
    <path id="Caminho_222" data-name="Caminho 222" d="M154.043,194.151a3.41,3.41,0,1,1-3.41-3.41,3.41,3.41,0,0,1,3.41,3.41" transform="translate(135.444 175.481)" fill="#cad1dc"/>
    <path id="Caminho_223" data-name="Caminho 223" d="M156.212,170.689a4.337,4.337,0,1,1-4.337-4.337,4.338,4.338,0,0,1,4.337,4.337" transform="translate(135.733 153.043)" fill="#cad1dc"/>
    <path id="Caminho_224" data-name="Caminho 224" d="M128.64,202.917a2.848,2.848,0,1,1-2.849-2.847,2.848,2.848,0,0,1,2.849,2.847" transform="translate(113.107 184.063)" fill="#cad1dc"/>
    <path id="Caminho_225" data-name="Caminho 225" d="M178.507,175.037a2.848,2.848,0,1,1-2.849-2.847,2.848,2.848,0,0,1,2.849,2.847" transform="translate(158.984 158.414)" fill="#cad1dc"/>
    <path id="Caminho_226" data-name="Caminho 226" d="M79.01,188.333a2.848,2.848,0,1,1-2.849-2.847,2.848,2.848,0,0,1,2.849,2.847" transform="translate(67.448 170.646)" fill="#cad1dc"/>
    <path id="Caminho_227" data-name="Caminho 227" d="M115.692,151.174a2.848,2.848,0,1,1-2.849-2.847,2.847,2.847,0,0,1,2.849,2.847" transform="translate(101.195 136.46)" fill="#cad1dc"/>
    <path id="Caminho_228" data-name="Caminho 228" d="M128.64,202.917a2.848,2.848,0,1,1-2.849-2.847,2.848,2.848,0,0,1,2.849,2.847" transform="translate(113.107 184.063)" fill="#cad1dc"/>
    <path id="Caminho_229" data-name="Caminho 229" d="M81.918,189.275a4.814,4.814,0,1,1-4.815-4.813,4.814,4.814,0,0,1,4.815,4.813" transform="translate(66.505 169.704)" fill="#cad1dc"/>
    <path id="Caminho_230" data-name="Caminho 230" d="M96.94,205.007a2.848,2.848,0,1,1-2.849-2.847,2.848,2.848,0,0,1,2.849,2.847" transform="translate(83.943 185.986)" fill="#cad1dc"/>
    <path id="Caminho_231" data-name="Caminho 231" d="M72.163,199.56a2.848,2.848,0,1,1-2.849-2.847,2.848,2.848,0,0,1,2.849,2.847" transform="translate(61.148 180.975)" fill="#cad1dc"/>
    <path id="Caminho_232" data-name="Caminho 232" d="M75.331,148.143a2.848,2.848,0,1,1-2.849-2.847,2.849,2.849,0,0,1,2.849,2.847" transform="translate(64.063 133.672)" fill="#cad1dc"/>
    <path id="Caminho_233" data-name="Caminho 233" d="M115.692,151.174a2.848,2.848,0,1,1-2.849-2.847,2.847,2.847,0,0,1,2.849,2.847" transform="translate(101.195 136.46)" fill="#cad1dc"/>
    <path id="Caminho_234" data-name="Caminho 234" d="M148.355,112.448a2.848,2.848,0,1,1-2.849-2.847,2.847,2.847,0,0,1,2.849,2.847" transform="translate(131.245 100.832)" fill="#cad1dc"/>
    <path id="Caminho_235" data-name="Caminho 235" d="M186.195,88.641a2.848,2.848,0,1,1-2.847-2.847,2.846,2.846,0,0,1,2.847,2.847" transform="translate(166.057 78.93)" fill="#cad1dc"/>
    <path id="Caminho_236" data-name="Caminho 236" d="M177.738,118.778a3.831,3.831,0,1,1-3.832-3.83,3.832,3.832,0,0,1,3.832,3.83" transform="translate(156.468 105.752)" fill="#cad1dc"/>
    <path id="Caminho_237" data-name="Caminho 237" d="M157.238,75.582a2.848,2.848,0,1,1-2.849-2.847,2.847,2.847,0,0,1,2.849,2.847" transform="translate(139.417 66.916)" fill="#cad1dc"/>
    <path id="Caminho_238" data-name="Caminho 238" d="M150.858,113.259a4.541,4.541,0,1,1-4.541-4.539,4.54,4.54,0,0,1,4.541,4.539" transform="translate(130.433 100.022)" fill="#cad1dc"/>
    <path id="Caminho_239" data-name="Caminho 239" d="M106.293,92.421a2.849,2.849,0,1,1-2.851-2.847,2.849,2.849,0,0,1,2.851,2.847" transform="translate(92.546 82.408)" fill="#cad1dc"/>
    <path id="Caminho_240" data-name="Caminho 240" d="M118.094,151.954a4.473,4.473,0,1,1-4.474-4.474,4.473,4.473,0,0,1,4.474,4.474" transform="translate(100.416 135.681)" fill="#cad1dc"/>
    <path id="Caminho_241" data-name="Caminho 241" d="M69.882,100.323a2.848,2.848,0,1,1-2.849-2.847,2.847,2.847,0,0,1,2.849,2.847" transform="translate(59.05 89.677)" fill="#cad1dc"/>
    <path id="Caminho_242" data-name="Caminho 242" d="M75.331,148.143a2.848,2.848,0,1,1-2.849-2.847,2.849,2.849,0,0,1,2.849,2.847" transform="translate(64.063 133.672)" fill="#cad1dc"/>
    <path id="Caminho_243" data-name="Caminho 243" d="M52.545,173.347A2.848,2.848,0,1,1,49.7,170.5a2.848,2.848,0,0,1,2.849,2.847" transform="translate(43.1 156.859)" fill="#cad1dc"/>
    <path id="Caminho_244" data-name="Caminho 244" d="M73.108,199.867a3.488,3.488,0,1,1-3.489-3.487,3.487,3.487,0,0,1,3.489,3.487" transform="translate(60.842 180.669)" fill="#cad1dc"/>
    <path id="Caminho_245" data-name="Caminho 245" d="M33.7,175.762a2.848,2.848,0,1,1-2.849-2.847,2.847,2.847,0,0,1,2.849,2.847" transform="translate(25.76 159.081)" fill="#cad1dc"/>
    <path id="Caminho_246" data-name="Caminho 246" d="M52.545,173.347A2.848,2.848,0,1,1,49.7,170.5a2.848,2.848,0,0,1,2.849,2.847" transform="translate(43.1 156.859)" fill="#cad1dc"/>
    <path id="Caminho_247" data-name="Caminho 247" d="M48.969,129.921a2.848,2.848,0,1,1-2.849-2.847,2.848,2.848,0,0,1,2.849,2.847" transform="translate(39.81 116.907)" fill="#cad1dc"/>
    <path id="Caminho_248" data-name="Caminho 248" d="M75.331,148.143a2.848,2.848,0,1,1-2.849-2.847,2.849,2.849,0,0,1,2.849,2.847" transform="translate(64.063 133.672)" fill="#cad1dc"/>
    <path id="Caminho_249" data-name="Caminho 249" d="M29.283,150.731a2.848,2.848,0,1,1-2.847-2.847,2.846,2.846,0,0,1,2.847,2.847" transform="translate(21.699 136.052)" fill="#cad1dc"/>
    <path id="Caminho_250" data-name="Caminho 250" d="M52.545,173.347A2.848,2.848,0,1,1,49.7,170.5a2.848,2.848,0,0,1,2.849,2.847" transform="translate(43.1 156.859)" fill="#cad1dc"/>
    <path id="Caminho_251" data-name="Caminho 251" d="M16.6,151.455a2.848,2.848,0,1,1-2.849-2.847,2.847,2.847,0,0,1,2.849,2.847" transform="translate(10.033 136.719)" fill="#cad1dc"/>
    <path id="Caminho_252" data-name="Caminho 252" d="M33.7,175.762a2.848,2.848,0,1,1-2.849-2.847,2.847,2.847,0,0,1,2.849,2.847" transform="translate(25.76 159.081)" fill="#cad1dc"/>
    <path id="Caminho_253" data-name="Caminho 253" d="M29.283,150.731a2.848,2.848,0,1,1-2.847-2.847,2.846,2.846,0,0,1,2.847,2.847" transform="translate(21.699 136.052)" fill="#cad1dc"/>
    <path id="Caminho_254" data-name="Caminho 254" d="M16.6,151.455a2.848,2.848,0,1,1-2.849-2.847,2.847,2.847,0,0,1,2.849,2.847" transform="translate(10.033 136.719)" fill="#cad1dc"/>
    <path id="Caminho_255" data-name="Caminho 255" d="M6.548,123.61A2.848,2.848,0,1,1,3.7,120.763a2.849,2.849,0,0,1,2.849,2.847" transform="translate(0.783 111.101)" fill="#cad1dc"/>
    <path id="Caminho_256" data-name="Caminho 256" d="M30.586,151.154a3.73,3.73,0,1,1-3.729-3.729,3.73,3.73,0,0,1,3.729,3.729" transform="translate(21.277 135.63)" fill="#cad1dc"/>
    <path id="Caminho_257" data-name="Caminho 257" d="M48.969,129.921a2.848,2.848,0,1,1-2.849-2.847,2.848,2.848,0,0,1,2.849,2.847" transform="translate(39.81 116.907)" fill="#cad1dc"/>
    <path id="Caminho_258" data-name="Caminho 258" d="M106.293,92.421a2.849,2.849,0,1,1-2.851-2.847,2.849,2.849,0,0,1,2.851,2.847" transform="translate(92.546 82.408)" fill="#cad1dc"/>
    <path id="Caminho_259" data-name="Caminho 259" d="M157.238,75.582a2.848,2.848,0,1,1-2.849-2.847,2.847,2.847,0,0,1,2.849,2.847" transform="translate(139.417 66.916)" fill="#cad1dc"/>
    <path id="Caminho_260" data-name="Caminho 260" d="M205.135,90.884a1.746,1.746,0,1,1-1.745-1.745,1.744,1.744,0,0,1,1.745,1.745" transform="translate(185.51 82.007)" fill="#cad1dc"/>
    <path id="Caminho_261" data-name="Caminho 261" d="M207.025,113.64a2.848,2.848,0,1,1-2.849-2.847,2.848,2.848,0,0,1,2.849,2.847" transform="translate(185.221 101.929)" fill="#cad1dc"/>
    <path id="Caminho_262" data-name="Caminho 262" d="M195.061,55.353a2.848,2.848,0,1,1-2.849-2.847,2.848,2.848,0,0,1,2.849,2.847" transform="translate(174.214 48.305)" fill="#cad1dc"/>
    <path id="Caminho_263" data-name="Caminho 263" d="M157.238,75.582a2.848,2.848,0,1,1-2.849-2.847,2.847,2.847,0,0,1,2.849,2.847" transform="translate(139.417 66.916)" fill="#cad1dc"/>
    <path id="Caminho_264" data-name="Caminho 264" d="M186.195,88.641a2.848,2.848,0,1,1-2.847-2.847,2.846,2.846,0,0,1,2.847,2.847" transform="translate(166.057 78.93)" fill="#cad1dc"/>
    <path id="Caminho_265" data-name="Caminho 265" d="M204.389,78.857a2.848,2.848,0,1,1-2.849-2.847,2.847,2.847,0,0,1,2.849,2.847" transform="translate(182.796 69.929)" fill="#cad1dc"/>
    <path id="Caminho_266" data-name="Caminho 266" d="M195.061,55.353a2.848,2.848,0,1,1-2.849-2.847,2.848,2.848,0,0,1,2.849,2.847" transform="translate(174.214 48.305)" fill="#cad1dc"/>
    <path id="Caminho_267" data-name="Caminho 267" d="M186.195,88.641a2.848,2.848,0,1,1-2.847-2.847,2.846,2.846,0,0,1,2.847,2.847" transform="translate(166.057 78.93)" fill="#cad1dc"/>
    <path id="Caminho_268" data-name="Caminho 268" d="M116.2,36.918a2.848,2.848,0,1,1-2.849-2.847,2.847,2.847,0,0,1,2.849,2.847" transform="translate(101.665 31.345)" fill="#cad1dc"/>
    <path id="Caminho_269" data-name="Caminho 269" d="M195.061,55.353a2.848,2.848,0,1,1-2.849-2.847,2.848,2.848,0,0,1,2.849,2.847" transform="translate(174.214 48.305)" fill="#cad1dc"/>
    <path id="Caminho_270" data-name="Caminho 270" d="M157.238,75.582a2.848,2.848,0,1,1-2.849-2.847,2.847,2.847,0,0,1,2.849,2.847" transform="translate(139.417 66.916)" fill="#cad1dc"/>
    <path id="Caminho_271" data-name="Caminho 271" d="M156.007,15.827a2.848,2.848,0,1,1-2.849-2.847,2.848,2.848,0,0,1,2.849,2.847" transform="translate(138.284 11.942)" fill="#cad1dc"/>
    <path id="Caminho_272" data-name="Caminho 272" d="M178.689,33.6a2.254,2.254,0,1,1-2.254-2.254,2.254,2.254,0,0,1,2.254,2.254" transform="translate(160.246 28.834)" fill="#cad1dc"/>
    <path id="Caminho_273" data-name="Caminho 273" d="M125.74,13.948A2.848,2.848,0,1,1,122.89,11.1a2.847,2.847,0,0,1,2.849,2.847" transform="translate(110.439 10.213)" fill="#cad1dc"/>
    <path id="Caminho_274" data-name="Caminho 274" d="M130.253,5.59A2.848,2.848,0,1,1,127.4,2.743a2.848,2.848,0,0,1,2.849,2.847" transform="translate(114.591 2.524)" fill="#cad1dc"/>
    <path id="Caminho_275" data-name="Caminho 275" d="M144,20.785a1.716,1.716,0,1,1-1.716-1.716A1.717,1.717,0,0,1,144,20.785" transform="translate(129.323 17.543)" fill="#cad1dc"/>
    <path id="Caminho_276" data-name="Caminho 276" d="M154.466,24.679a1.654,1.654,0,1,1-1.653-1.653,1.653,1.653,0,0,1,1.653,1.653" transform="translate(139.065 21.184)" fill="#cad1dc"/>
    <path id="Caminho_277" data-name="Caminho 277" d="M154.737,45.76a1.653,1.653,0,1,1-1.653-1.653,1.653,1.653,0,0,1,1.653,1.653" transform="translate(139.316 40.578)" fill="#cad1dc"/>
    <path id="Caminho_278" data-name="Caminho 278" d="M154.662,34.329a1.653,1.653,0,1,1-1.653-1.653,1.653,1.653,0,0,1,1.653,1.653" transform="translate(139.247 30.062)" fill="#cad1dc"/>
    <path id="Caminho_279" data-name="Caminho 279" d="M169.206,49.192a1.653,1.653,0,1,1-1.655-1.653,1.655,1.655,0,0,1,1.655,1.653" transform="translate(152.627 43.736)" fill="#cad1dc"/>
    <path id="Caminho_280" data-name="Caminho 280" d="M179.965,51.6a1.653,1.653,0,1,1-1.653-1.653,1.653,1.653,0,0,1,1.653,1.653" transform="translate(162.525 45.955)" fill="#cad1dc"/>
    <path id="Caminho_281" data-name="Caminho 281" d="M181.264,61.25a1.654,1.654,0,1,1-1.653-1.653,1.653,1.653,0,0,1,1.653,1.653" transform="translate(163.719 54.829)" fill="#cad1dc"/>
    <path id="Caminho_282" data-name="Caminho 282" d="M183.916,83.982a1.653,1.653,0,1,1-1.653-1.653,1.653,1.653,0,0,1,1.653,1.653" transform="translate(166.16 75.742)" fill="#cad1dc"/>
    <path id="Caminho_283" data-name="Caminho 283" d="M188.924,85.719a1.654,1.654,0,1,1-1.653-1.653,1.654,1.654,0,0,1,1.653,1.653" transform="translate(170.766 77.34)" fill="#cad1dc"/>
    <path id="Caminho_284" data-name="Caminho 284" d="M166.444,99.308a1.653,1.653,0,1,1-1.653-1.653,1.653,1.653,0,0,1,1.653,1.653" transform="translate(150.086 89.842)" fill="#cad1dc"/>
    <path id="Caminho_285" data-name="Caminho 285" d="M188.413,115.657A1.654,1.654,0,1,1,186.76,114a1.654,1.654,0,0,1,1.653,1.653" transform="translate(170.296 104.883)" fill="#cad1dc"/>
    <path id="Caminho_286" data-name="Caminho 286" d="M190.047,127.1a1.653,1.653,0,1,1-1.653-1.653,1.653,1.653,0,0,1,1.653,1.653" transform="translate(171.801 115.411)" fill="#cad1dc"/>
    <path id="Caminho_287" data-name="Caminho 287" d="M164.809,140.487a1.653,1.653,0,1,1-1.653-1.653,1.653,1.653,0,0,1,1.653,1.653" transform="translate(148.582 127.727)" fill="#cad1dc"/>
    <path id="Caminho_288" data-name="Caminho 288" d="M149.788,143.756a1.653,1.653,0,1,1-1.653-1.653,1.653,1.653,0,0,1,1.653,1.653" transform="translate(134.763 130.734)" fill="#cad1dc"/>
    <path id="Caminho_289" data-name="Caminho 289" d="M121.791,181.971a1.653,1.653,0,1,1-1.653-1.653,1.653,1.653,0,0,1,1.653,1.653" transform="translate(109.006 165.892)" fill="#cad1dc"/>
    <path id="Caminho_290" data-name="Caminho 290" d="M118.828,170.527a1.653,1.653,0,1,1-1.653-1.653,1.653,1.653,0,0,1,1.653,1.653" transform="translate(106.28 155.363)" fill="#cad1dc"/>
    <path id="Caminho_291" data-name="Caminho 291" d="M93.386,171.447a1.653,1.653,0,1,1-1.653-1.653,1.653,1.653,0,0,1,1.653,1.653" transform="translate(82.873 156.21)" fill="#cad1dc"/>
    <path id="Caminho_292" data-name="Caminho 292" d="M71.111,186.16a1.653,1.653,0,1,1-1.653-1.653,1.653,1.653,0,0,1,1.653,1.653" transform="translate(62.38 169.745)" fill="#cad1dc"/>
    <path id="Caminho_293" data-name="Caminho 293" d="M58.032,182.482a1.653,1.653,0,1,1-1.653-1.653,1.653,1.653,0,0,1,1.653,1.653" transform="translate(50.348 166.362)" fill="#cad1dc"/>
    <path id="Caminho_294" data-name="Caminho 294" d="M72.132,172.162a1.653,1.653,0,1,1-1.653-1.653,1.653,1.653,0,0,1,1.653,1.653" transform="translate(63.32 156.867)" fill="#cad1dc"/>
    <path id="Caminho_295" data-name="Caminho 295" d="M29.524,159.492a1.653,1.653,0,1,1-1.653-1.653,1.653,1.653,0,0,1,1.653,1.653" transform="translate(24.12 145.211)" fill="#cad1dc"/>
    <path id="Caminho_296" data-name="Caminho 296" d="M26.152,157.857A1.653,1.653,0,1,1,24.5,156.2a1.653,1.653,0,0,1,1.653,1.653" transform="translate(21.018 143.707)" fill="#cad1dc"/>
    <path id="Caminho_297" data-name="Caminho 297" d="M23.7,150.4a1.653,1.653,0,1,1-1.653-1.653A1.653,1.653,0,0,1,23.7,150.4" transform="translate(18.762 136.845)" fill="#cad1dc"/>
    <path id="Caminho_298" data-name="Caminho 298" d="M21.146,142.837a1.654,1.654,0,1,1-1.653-1.653,1.654,1.654,0,0,1,1.653,1.653" transform="translate(16.411 129.889)" fill="#cad1dc"/>
    <path id="Caminho_299" data-name="Caminho 299" d="M15.22,124.649A1.654,1.654,0,1,1,13.567,123a1.654,1.654,0,0,1,1.653,1.653" transform="translate(10.959 113.156)" fill="#cad1dc"/>
    <path id="Caminho_300" data-name="Caminho 300" d="M13.686,119.642a1.653,1.653,0,1,1-1.653-1.653,1.654,1.654,0,0,1,1.653,1.653" transform="translate(9.55 108.549)" fill="#cad1dc"/>
    <path id="Caminho_301" data-name="Caminho 301" d="M48.734,148.967a1.653,1.653,0,1,1-1.653-1.653,1.653,1.653,0,0,1,1.653,1.653" transform="translate(41.794 135.528)" fill="#cad1dc"/>
    <path id="Caminho_302" data-name="Caminho 302" d="M32.385,112.9a1.653,1.653,0,1,1-1.653-1.653,1.654,1.654,0,0,1,1.653,1.653" transform="translate(26.753 102.345)" fill="#cad1dc"/>
    <path id="Caminho_303" data-name="Caminho 303" d="M10.11,108.4a1.653,1.653,0,1,1-1.653-1.653A1.653,1.653,0,0,1,10.11,108.4" transform="translate(6.26 98.209)" fill="#cad1dc"/>
    <path id="Caminho_304" data-name="Caminho 304" d="M17.761,67.658A1.653,1.653,0,1,1,16.108,66a1.653,1.653,0,0,1,1.653,1.653" transform="translate(13.299 60.724)" fill="#cad1dc"/>
    <path id="Caminho_305" data-name="Caminho 305" d="M35.757,41.577A1.653,1.653,0,1,1,34.1,39.924a1.653,1.653,0,0,1,1.653,1.653" transform="translate(29.855 36.73)" fill="#cad1dc"/>
    <path id="Caminho_306" data-name="Caminho 306" d="M18.489,57.313a1.653,1.653,0,1,1-1.653-1.653,1.654,1.654,0,0,1,1.653,1.653" transform="translate(13.968 51.207)" fill="#cad1dc"/>
    <path id="Caminho_307" data-name="Caminho 307" d="M43.42,34.527a1.653,1.653,0,1,1-1.653-1.653,1.653,1.653,0,0,1,1.653,1.653" transform="translate(36.905 30.244)" fill="#cad1dc"/>
    <path id="Caminho_308" data-name="Caminho 308" d="M28.706,48.117a1.653,1.653,0,1,1-1.653-1.653,1.653,1.653,0,0,1,1.653,1.653" transform="translate(23.368 42.747)" fill="#cad1dc"/>
    <path id="Caminho_309" data-name="Caminho 309" d="M74.891,19.755A1.653,1.653,0,1,1,73.238,18.1a1.654,1.654,0,0,1,1.653,1.653" transform="translate(65.858 16.654)" fill="#cad1dc"/>
    <path id="Caminho_310" data-name="Caminho 310" d="M77.957,13.069A1.653,1.653,0,1,1,76.3,11.416a1.654,1.654,0,0,1,1.653,1.653" transform="translate(68.679 10.503)" fill="#cad1dc"/>
    <path id="Caminho_311" data-name="Caminho 311" d="M64.367,15.522a1.653,1.653,0,1,1-1.653-1.653,1.654,1.654,0,0,1,1.653,1.653" transform="translate(56.176 12.759)" fill="#cad1dc"/>
    <path id="Caminho_312" data-name="Caminho 312" d="M59.667,19.813a1.653,1.653,0,1,1-1.653-1.653,1.653,1.653,0,0,1,1.653,1.653" transform="translate(51.852 16.707)" fill="#cad1dc"/>
    <path id="Caminho_313" data-name="Caminho 313" d="M67.024,12.967a1.653,1.653,0,1,1-1.653-1.653,1.653,1.653,0,0,1,1.653,1.653" transform="translate(58.62 10.409)" fill="#cad1dc"/>
    <path id="Caminho_314" data-name="Caminho 314" d="M104.32,13.172a1.654,1.654,0,1,1-1.653-1.653,1.653,1.653,0,0,1,1.653,1.653" transform="translate(92.93 10.597)" fill="#cad1dc"/>
    <path id="Caminho_315" data-name="Caminho 315" d="M85.825,54.248a1.653,1.653,0,1,1-1.653-1.653,1.652,1.652,0,0,1,1.653,1.653" transform="translate(75.917 48.387)" fill="#cad1dc"/>
    <path id="Caminho_316" data-name="Caminho 316" d="M75.3,60.787a1.653,1.653,0,1,1-1.653-1.653A1.654,1.654,0,0,1,75.3,60.787" transform="translate(66.234 54.403)" fill="#cad1dc"/>
    <path id="Caminho_317" data-name="Caminho 317" d="M109.939,61.3a1.653,1.653,0,1,1-1.653-1.653,1.654,1.654,0,0,1,1.653,1.653" transform="translate(98.102 54.873)" fill="#cad1dc"/>
    <path id="Caminho_318" data-name="Caminho 318" d="M126.492,8.676a1.653,1.653,0,1,1-1.653-1.653,1.653,1.653,0,0,1,1.653,1.653" transform="translate(113.33 6.461)" fill="#cad1dc"/>
    <path id="Caminho_319" data-name="Caminho 319" d="M156.007,15.827a2.848,2.848,0,1,1-2.849-2.847,2.848,2.848,0,0,1,2.849,2.847" transform="translate(138.284 11.942)" fill="#cad1dc"/>
    <path id="Caminho_320" data-name="Caminho 320" d="M101.3,2.847A2.848,2.848,0,1,1,98.446,0,2.848,2.848,0,0,1,101.3,2.847" transform="translate(87.951)" fill="#cad1dc"/>
    <path id="Caminho_321" data-name="Caminho 321" d="M125.74,13.948A2.848,2.848,0,1,1,122.89,11.1a2.847,2.847,0,0,1,2.849,2.847" transform="translate(110.439 10.213)" fill="#cad1dc"/>
    <path id="Caminho_322" data-name="Caminho 322" d="M158.183,16.532a4.319,4.319,0,1,1-4.318-4.318,4.318,4.318,0,0,1,4.318,4.318" transform="translate(137.581 11.237)" fill="#cad1dc"/>
    <path id="Caminho_323" data-name="Caminho 323" d="M116.2,36.918a2.848,2.848,0,1,1-2.849-2.847,2.847,2.847,0,0,1,2.849,2.847" transform="translate(101.665 31.345)" fill="#cad1dc"/>
    <path id="Caminho_324" data-name="Caminho 324" d="M167.734,78.983a9.945,9.945,0,1,1-9.944-9.944,9.945,9.945,0,0,1,9.944,9.944" transform="translate(136.017 63.515)" fill="#cad1dc"/>
    <path id="Caminho_325" data-name="Caminho 325" d="M64.194,47.667a2.848,2.848,0,1,1-2.849-2.847,2.847,2.847,0,0,1,2.849,2.847" transform="translate(53.817 41.234)" fill="#cad1dc"/>
    <path id="Caminho_326" data-name="Caminho 326" d="M106.293,92.421a2.849,2.849,0,1,1-2.851-2.847,2.849,2.849,0,0,1,2.851,2.847" transform="translate(92.546 82.408)" fill="#cad1dc"/>
    <path id="Caminho_327" data-name="Caminho 327" d="M116.2,36.918a2.848,2.848,0,1,1-2.849-2.847,2.847,2.847,0,0,1,2.849,2.847" transform="translate(101.665 31.345)" fill="#cad1dc"/>
    <path id="Caminho_328" data-name="Caminho 328" d="M52.954,76.379A2.848,2.848,0,1,1,50.1,73.532a2.848,2.848,0,0,1,2.849,2.847" transform="translate(43.476 67.649)" fill="#cad1dc"/>
    <path id="Caminho_329" data-name="Caminho 329" d="M69.882,100.323a2.848,2.848,0,1,1-2.849-2.847,2.847,2.847,0,0,1,2.849,2.847" transform="translate(59.05 89.677)" fill="#cad1dc"/>
    <path id="Caminho_330" data-name="Caminho 330" d="M113.4,94.723a7.652,7.652,0,1,1-7.651-7.651,7.651,7.651,0,0,1,7.651,7.651" transform="translate(90.244 80.106)" fill="#cad1dc"/>
    <path id="Caminho_331" data-name="Caminho 331" d="M52.954,76.379A2.848,2.848,0,1,1,50.1,73.532a2.848,2.848,0,0,1,2.849,2.847" transform="translate(43.476 67.649)" fill="#cad1dc"/>
    <path id="Caminho_332" data-name="Caminho 332" d="M48.969,129.921a2.848,2.848,0,1,1-2.849-2.847,2.848,2.848,0,0,1,2.849,2.847" transform="translate(39.81 116.907)" fill="#cad1dc"/>
    <path id="Caminho_333" data-name="Caminho 333" d="M71.435,100.827a3.9,3.9,0,1,1-3.9-3.9,3.9,3.9,0,0,1,3.9,3.9" transform="translate(58.547 89.173)" fill="#cad1dc"/>
    <path id="Caminho_334" data-name="Caminho 334" d="M6.548,123.61A2.848,2.848,0,1,1,3.7,120.763a2.849,2.849,0,0,1,2.849,2.847" transform="translate(0.783 111.101)" fill="#cad1dc"/>
    <path id="Caminho_335" data-name="Caminho 335" d="M57.544,132.7a8.646,8.646,0,1,1-8.646-8.646,8.646,8.646,0,0,1,8.646,8.646" transform="translate(37.033 114.129)" fill="#cad1dc"/>
    <path id="Caminho_336" data-name="Caminho 336" d="M17.021,94.465a2.848,2.848,0,1,1-2.849-2.847,2.847,2.847,0,0,1,2.849,2.847" transform="translate(10.418 84.288)" fill="#cad1dc"/>
    <path id="Caminho_337" data-name="Caminho 337" d="M5.7,90.88a2.848,2.848,0,1,1-2.849-2.847A2.847,2.847,0,0,1,5.7,90.88" transform="translate(0 80.99)" fill="#cad1dc"/>
    <path id="Caminho_338" data-name="Caminho 338" d="M6.548,123.61A2.848,2.848,0,1,1,3.7,120.763a2.849,2.849,0,0,1,2.849,2.847" transform="translate(0.783 111.101)" fill="#cad1dc"/>
    <path id="Caminho_339" data-name="Caminho 339" d="M17.021,94.465a2.848,2.848,0,1,1-2.849-2.847,2.847,2.847,0,0,1,2.849,2.847" transform="translate(10.418 84.288)" fill="#cad1dc"/>
    <path id="Caminho_340" data-name="Caminho 340" d="M52.954,76.379A2.848,2.848,0,1,1,50.1,73.532a2.848,2.848,0,0,1,2.849,2.847" transform="translate(43.476 67.649)" fill="#cad1dc"/>
    <path id="Caminho_341" data-name="Caminho 341" d="M11.339,66.108a2.848,2.848,0,1,1-2.849-2.847,2.848,2.848,0,0,1,2.849,2.847" transform="translate(5.191 58.2)" fill="#cad1dc"/>
    <path id="Caminho_342" data-name="Caminho 342" d="M17.021,94.465a2.848,2.848,0,1,1-2.849-2.847,2.847,2.847,0,0,1,2.849,2.847" transform="translate(10.418 84.288)" fill="#cad1dc"/>
    <path id="Caminho_343" data-name="Caminho 343" d="M11.339,66.108a2.848,2.848,0,1,1-2.849-2.847,2.848,2.848,0,0,1,2.849,2.847" transform="translate(5.191 58.2)" fill="#cad1dc"/>
    <path id="Caminho_344" data-name="Caminho 344" d="M29.01,52.5a2.848,2.848,0,1,1-2.847-2.847A2.847,2.847,0,0,1,29.01,52.5" transform="translate(21.448 45.683)" fill="#cad1dc"/>
    <path id="Caminho_345" data-name="Caminho 345" d="M20.2,48.763a2.259,2.259,0,1,1-2.26-2.26,2.26,2.26,0,0,1,2.26,2.26" transform="translate(14.426 42.783)" fill="#cad1dc"/>
    <path id="Caminho_346" data-name="Caminho 346" d="M58.3,78.113a6.464,6.464,0,1,1-6.465-6.465A6.463,6.463,0,0,1,58.3,78.113" transform="translate(41.744 65.916)" fill="#cad1dc"/>
    <path id="Caminho_347" data-name="Caminho 347" d="M64.194,47.667a2.848,2.848,0,1,1-2.849-2.847,2.847,2.847,0,0,1,2.849,2.847" transform="translate(53.817 41.234)" fill="#cad1dc"/>
    <path id="Caminho_348" data-name="Caminho 348" d="M116.2,36.918a2.848,2.848,0,1,1-2.849-2.847,2.847,2.847,0,0,1,2.849,2.847" transform="translate(101.665 31.345)" fill="#cad1dc"/>
    <path id="Caminho_349" data-name="Caminho 349" d="M127.293,14.453a3.9,3.9,0,1,1-3.9-3.9,3.9,3.9,0,0,1,3.9,3.9" transform="translate(109.936 9.709)" fill="#cad1dc"/>
    <path id="Caminho_350" data-name="Caminho 350" d="M60.626,13.59a2.848,2.848,0,1,1-2.849-2.847,2.847,2.847,0,0,1,2.849,2.847" transform="translate(50.534 9.884)" fill="#cad1dc"/>
    <path id="Caminho_351" data-name="Caminho 351" d="M64.194,47.667a2.848,2.848,0,1,1-2.849-2.847,2.847,2.847,0,0,1,2.849,2.847" transform="translate(53.817 41.234)" fill="#cad1dc"/>
    <path id="Caminho_352" data-name="Caminho 352" d="M36.026,29.287a1.956,1.956,0,1,1-1.956-1.956,1.957,1.957,0,0,1,1.956,1.956" transform="translate(29.546 25.144)" fill="#cad1dc"/>
    <path id="Caminho_353" data-name="Caminho 353" d="M60.626,13.59a2.848,2.848,0,1,1-2.849-2.847,2.847,2.847,0,0,1,2.849,2.847" transform="translate(50.534 9.884)" fill="#cad1dc"/>
    <path id="Caminho_354" data-name="Caminho 354" d="M64.194,47.667a2.848,2.848,0,1,1-2.849-2.847,2.847,2.847,0,0,1,2.849,2.847" transform="translate(53.817 41.234)" fill="#cad1dc"/>
    <path id="Caminho_355" data-name="Caminho 355" d="M83.56,5.246A2.848,2.848,0,1,1,80.71,2.4,2.848,2.848,0,0,1,83.56,5.246" transform="translate(71.634 2.207)" fill="#cad1dc"/>
    <path id="Caminho_356" data-name="Caminho 356" d="M119.655,38.037a5.182,5.182,0,1,1-5.182-5.182,5.184,5.184,0,0,1,5.182,5.182" transform="translate(100.547 30.226)" fill="#cad1dc"/>
    <path id="Caminho_357" data-name="Caminho 357" d="M101.3,2.847A2.848,2.848,0,1,1,98.446,0,2.848,2.848,0,0,1,101.3,2.847" transform="translate(87.951)" fill="#cad1dc"/>
    <path id="Caminho_358" data-name="Caminho 358" d="M62.462,14.186a4.09,4.09,0,1,1-4.09-4.09,4.089,4.089,0,0,1,4.09,4.09" transform="translate(49.94 9.288)" fill="#cad1dc"/>
  </g>
</svg>
