<svg xmlns="http://www.w3.org/2000/svg" width="400" height="144.99" viewBox="0 0 400 144.99">
  <g id="Grupo_243" data-name="Grupo 243" transform="translate(0 -5001.25)">
    <g id="Grupo_190" data-name="Grupo 190" transform="translate(0 5001.25)">
      <path id="Caminho_407" data-name="Caminho 407" d="M220.543,143.872,198.813,181.2h40.7l21.728-37.332Z" transform="translate(30.761 -36.214)" fill="#7c8087"/>
      <path id="Caminho_408" data-name="Caminho 408" d="M180.2,160.6l-9.215,15.832H203.81l9.215-15.832Z" transform="translate(22.826 -31.445)" fill="#d85d1a"/>
      <path id="Caminho_409" data-name="Caminho 409" d="M152.377,160.6l-9.215,15.832h32.828L185.2,160.6Z" transform="translate(14.895 -31.445)" fill="#7fb39c"/>
      <path id="Caminho_410" data-name="Caminho 410" d="M20.17,160.6v15.832H175.3L184.52,160.6Z" transform="translate(-20.17 -31.445)" fill="#7c8087"/>
      <path id="Caminho_411" data-name="Caminho 411" d="M254.484,151.623l-21.728,37.332Zm20.335-34.937-20.335,34.937h40.7l20.334-34.937Z" transform="translate(40.438 -43.965)" fill="#d85d1a"/>
      <path id="Caminho_412" data-name="Caminho 412" d="M254.486,143.872,232.757,181.2h40.694l21.73-37.332Z" transform="translate(40.438 -36.214)" fill="#7fb39c"/>
      <path id="Caminho_413" data-name="Caminho 413" d="M266.985,205.088H349.8V60.1Z" transform="translate(50.197 -60.098)" fill="#7fb39c"/>
      <path id="Caminho_414" data-name="Caminho 414" d="M288.435,143.872,266.706,181.2h83.177V143.872Z" transform="translate(50.117 -36.214)" fill="#2a3235"/>
    </g>
  </g>
</svg>
