<svg id="Grupo_176" data-name="Grupo 176" xmlns="http://www.w3.org/2000/svg" xmlns:xlink="http://www.w3.org/1999/xlink" width="100.064" height="100" viewBox="0 0 100.064 100">
  <defs>
    <clipPath id="clip-path">
      <rect id="Retângulo_148" data-name="Retângulo 148" width="100.064" height="100" fill="none"/>
    </clipPath>
  </defs>
  <g id="Grupo_175" data-name="Grupo 175" clip-path="url(#clip-path)">
    <path id="Caminho_364" data-name="Caminho 364" d="M100.064,38.639V31.6c-.8-1.781-2.356-1.906-4.1-1.728,0-.789-.02-1.465,0-2.139a3.679,3.679,0,0,0-2.082-3.572Q83.056,18.042,72.248,11.882C65.744,8.189,59.228,4.516,52.741.793A4.941,4.941,0,0,0,47.4.771Q33.81,8.541,20.178,16.246a3.7,3.7,0,0,0-.8.546,1.333,1.333,0,0,0-.2,1.781,1.3,1.3,0,0,0,1.683.593,11.474,11.474,0,0,0,1.382-.719Q35.483,10.938,48.706,3.4a2.408,2.408,0,0,1,2.7,0Q71.582,14.9,91.8,26.326a1.948,1.948,0,0,1,1.244,2.208,11.382,11.382,0,0,0-.01,1.5,11.583,11.583,0,0,1-1.821-.639Q71.686,18.333,52.194,7.216a3.786,3.786,0,0,0-4.241-.022Q28.479,18.343,8.934,29.366a13.689,13.689,0,0,1-1.862.7A25.194,25.194,0,0,1,7.1,27.419c.03-.269.383-.572.661-.734,2.25-1.307,4.517-2.583,6.778-3.871a5.493,5.493,0,0,0,.749-.455,1.37,1.37,0,0,0,.39-1.907,1.286,1.286,0,0,0-1.842-.571c-2.785,1.548-5.564,3.11-8.3,4.739a3.022,3.022,0,0,0-1.395,2.659c-.022.81-.005,1.621-.005,2.57-.593,0-1.133-.021-1.672,0A2.4,2.4,0,0,0,.045,32.279q-.059,2.832,0,5.665a2.409,2.409,0,0,0,2.407,2.445c.516.027,1.034,0,1.684,0,0,1.344,0,2.633,0,3.923.007,1.994.928,2.914,2.927,2.92,1.3.005,2.6,0,4.048,0v1.186q0,11.869.01,23.738a1.9,1.9,0,0,1-.628,1.491,3.348,3.348,0,0,0-.874,2.038c-.1,2.7-.041,5.4-.041,8.106v1.157c-1,0-1.9-.012-2.8,0A2.453,2.453,0,0,0,4.139,87.57c-.019,1.1,0,2.206,0,3.444-.594,0-1.135-.02-1.674,0a2.4,2.4,0,0,0-2.417,2.43c-.038,1.66-.089,3.327.034,4.979.04.544.605,1.049.931,1.572h99.055V92.77c-.807-1.757-2.336-1.944-4.1-1.7,0-1.232.011-2.33,0-3.426a2.469,2.469,0,0,0-2.666-2.684c-.875-.012-1.752,0-2.773,0V83.672c0-2.636-.016-5.272.008-7.907A2.728,2.728,0,0,0,89.49,73.46a1.059,1.059,0,0,1-.387-.7c-.019-8.459-.016-16.919-.016-25.525,1.329,0,2.617,0,3.9,0,2.057-.006,2.963-.915,2.969-2.975,0-1.236,0-2.471,0-3.844,1.666.083,3.3.039,4.1-1.779m-84.9-9.416q17.054-9.685,34.1-19.378A1.318,1.318,0,0,1,50.771,9.8q17.167,9.783,34.356,19.527c.188.107.363.234.545.352-.023.057-.045.113-.067.17-5.306,0-10.613.007-15.919-.023-.262,0-.555-.305-.773-.527a2.358,2.358,0,0,1-.288-.613,1.45,1.45,0,0,0-1.909-.865,1.491,1.491,0,0,0-.77,2.039,36.252,36.252,0,0,1,1.324,4.169,17.51,17.51,0,1,1-5.128-9.419c.143.134.28.274.431.4a1.48,1.48,0,0,0,2.1-.014,1.369,1.369,0,0,0-.1-2.081,32.736,32.736,0,0,0-4.5-3.4,20.473,20.473,0,0,0-28.788,9.545c-.143.32-.528.755-.8.757-5.334.045-10.669.034-16.3.034.475-.3.718-.476.976-.622M67.927,78.844H59.263V76.033h8.664Zm-7.183-23.1a1.536,1.536,0,0,1,.686-1.357c1.759-1.424,3.438-2.945,5.1-4.388V73.006H60.811c-.019-.329-.053-.639-.053-.949,0-5.437.007-10.875-.014-16.313M56.287,78.866H43.81a27.984,27.984,0,0,0-.033-3.2,3.442,3.442,0,0,0-.76-1.9,2.055,2.055,0,0,1-.658-1.594c.021-4.85.011-9.7.011-14.551V56.424a21.023,21.023,0,0,0,15.4-.038c.024.369.058.645.058.92,0,5.013,0,10.026.01,15.039a1.657,1.657,0,0,1-.545,1.226,4.1,4.1,0,0,0-.961,2.008,22.614,22.614,0,0,0-.04,3.287m-15.465-.052H32.13V76.028h8.692Zm-7.168-5.84V50.19c1.77,1.472,3.612,2.992,5.43,4.538a1.085,1.085,0,0,1,.34.731q.026,8.594.005,17.187a1.577,1.577,0,0,1-.083.328ZM3.01,37.4V32.824H29.936c-.162,1.506-.324,3-.494,4.575Zm4.13,6.878V40.461H29.708c.317,1.277.629,2.529.949,3.816ZM29.158,78.852H24.23c0-.988-.013-1.981,0-2.974a2.822,2.822,0,0,0-1.045-2.409,1.061,1.061,0,0,1-.34-.726q-.016-12.6.005-25.2a1.067,1.067,0,0,1,.075-.241h7.72v.917c0,8.044.008,16.087-.024,24.131,0,.407-.34.813-.525,1.219a8.534,8.534,0,0,0-.9,2.061,22.017,22.017,0,0,0-.04,3.226m-7.938-.006H12.558v-2.81H21.22Zm-7.1-31.578h5.7v25.7h-5.7ZM97.087,97H3.006V93.993H97.087Zm-5.252-9.116h1.129v3.072H7.112V87.884h62.86a6.6,6.6,0,0,0,1.072-.023,1.452,1.452,0,0,0-.028-2.889,6.739,6.739,0,0,0-.975-.018H12.532V81.906h75v3.047h-1.02q-4.1,0-8.2,0c-1.307,0-1.991.52-1.975,1.485s.7,1.444,2.022,1.444q6.739,0,13.479,0M77.37,72.245a1.9,1.9,0,0,1-.583,1.415,4.054,4.054,0,0,0-.884,2.053,22.489,22.489,0,0,0-.036,3.134H70.938a20.664,20.664,0,0,0-.039-3.136,9.072,9.072,0,0,0-.915-2.151c-.135-.3-.417-.591-.417-.887q-.033-12.49-.012-24.982a2.907,2.907,0,0,1,.063-.406h7.745v1.052q0,11.955.007,23.908m10.147,6.592H78.824V76.042h8.693ZM80.37,47.3h5.706V73.006H80.37Zm12.58-3.06H69.443c.315-1.259.632-2.526.953-3.811H92.95ZM70.649,37.4c-.172-1.553-.337-3.037-.507-4.569H97.085V37.4Z" fill="#fff"/>
    <path id="Caminho_365" data-name="Caminho 365" d="M50.131,22.92c-.745.063-1.5.072-2.233.2A14.4,14.4,0,0,0,35.611,38.692,13.783,13.783,0,0,0,40.17,48.03a1.432,1.432,0,0,0,2.1.079,1.487,1.487,0,0,0-.069-2.173c-.153-.169-.325-.32-.481-.486a11.237,11.237,0,0,1-3.142-9.494,11.551,11.551,0,1,1,15.4,12.284,11.172,11.172,0,0,1-6.618.416c-1.177-.285-1.932.048-2.179.883-.266.9.214,1.651,1.283,1.936a13.95,13.95,0,0,0,6.668.058,14.471,14.471,0,0,0-3-28.613" fill="#fff"/>
    <path id="Caminho_366" data-name="Caminho 366" d="M50.022,41.127a7.545,7.545,0,0,1-2.122-.539,1.5,1.5,0,0,0-1.957.542,1.4,1.4,0,0,0,.471,1.963c.453.305,1,.463,1.461.764a1.756,1.756,0,0,1,.729.81,1.548,1.548,0,0,0,1.459,1.213c.765-.09,1.339-.463,1.385-1.254a1.472,1.472,0,0,1,.863-1.25,4.147,4.147,0,0,0,2.005-4.247,3.839,3.839,0,0,0-2.867-3.243c-.554-.184-1.114-.355-1.658-.565-.609-.234-.817-.776-.47-1.247a1.9,1.9,0,0,1,1.245-.565c.292-.031.617.313.938.468A1.438,1.438,0,0,0,53.175,31.7c-.258-.28-.646-.437-.924-.7a2.871,2.871,0,0,1-.774-.963,1.465,1.465,0,0,0-2.867.05,2.6,2.6,0,0,1-.725,1.13,4.179,4.179,0,0,0-1.59,3.877,3.628,3.628,0,0,0,2.58,3.016c.485.185.977.353,1.474.5.648.191,1.174.487,1.059,1.274a1.3,1.3,0,0,1-1.386,1.242" fill="#fff"/>
  </g>
</svg>
