<svg xmlns="http://www.w3.org/2000/svg" xmlns:xlink="http://www.w3.org/1999/xlink" width="67" height="54.41" viewBox="0 0 67 54.41">
  <defs>
    <clipPath id="clip-path">
      <rect id="Retângulo_178" data-name="Retângulo 178" width="67" height="54.41" fill="#fff"/>
    </clipPath>
  </defs>
  <g id="Grupo_218" data-name="Grupo 218" clip-path="url(#clip-path)">
    <path id="Caminho_423" data-name="Caminho 423" d="M54.853,27.514V30.8a.549.549,0,0,1-.548.55H53.52a.551.551,0,0,1-.546-.55v-1.96a.549.549,0,0,0-.548-.546H14.579a.552.552,0,0,0-.552.546V30.8a.549.549,0,0,1-.548.55H12.7a.552.552,0,0,1-.55-.55V27.51a1.1,1.1,0,0,1,1.1-1.1H32.562q0-1.241,0-2.49a.552.552,0,0,1,.55-.55h.774a.553.553,0,0,1,.55.552v2.488H53.756a1.1,1.1,0,0,1,1.1,1.1m-10.871-6.3H23.017a2.763,2.763,0,0,1-1.946-.81l0-.008a2.748,2.748,0,0,1-.811-1.942V2.759A2.754,2.754,0,0,1,21.067.813l0,0A2.739,2.739,0,0,1,23.017,0H43.983a2.761,2.761,0,0,1,2.759,2.759V18.452a2.736,2.736,0,0,1-.808,1.942l-.006.008a2.766,2.766,0,0,1-1.946.81m-.012-2.759,0,0,.008,0V6.628H23.017l0,11.812,0,.012ZM64.242,54.41H43.273a2.766,2.766,0,0,1-1.946-.81l0-.008a2.756,2.756,0,0,1-.81-1.946V35.954a2.75,2.75,0,0,1,.81-1.942l0-.008a2.756,2.756,0,0,1,1.946-.806H64.242A2.754,2.754,0,0,1,67,35.954V51.646a2.754,2.754,0,0,1-.808,1.946l-.008.008a2.753,2.753,0,0,1-1.942.81m-.014-2.759,0,0h.008l0-11.82H43.273l0,11.812,0,.008Zm-40.5,2.759H2.761A2.764,2.764,0,0,1,.813,53.6l0-.008A2.756,2.756,0,0,1,0,51.646V35.954a2.75,2.75,0,0,1,.81-1.942l0-.008A2.753,2.753,0,0,1,2.761,33.2H23.725a2.761,2.761,0,0,1,2.761,2.756V51.646a2.749,2.749,0,0,1-.812,1.946l0,.008a2.763,2.763,0,0,1-1.946.81m-.014-2.759.008,0h.006V39.827H2.761l0,11.812,0,.008Z" transform="translate(0 -0.001)" fill="#fff" fill-rule="evenodd"/>
  </g>
</svg>
