<svg id="Grupo_178" data-name="Grupo 178" xmlns="http://www.w3.org/2000/svg" xmlns:xlink="http://www.w3.org/1999/xlink" width="99.968" height="100" viewBox="0 0 99.968 100">
  <defs>
    <clipPath id="clip-path">
      <rect id="Retângulo_149" data-name="Retângulo 149" width="99.968" height="100" fill="none"/>
    </clipPath>
  </defs>
  <g id="Grupo_177" data-name="Grupo 177" clip-path="url(#clip-path)">
    <path id="Caminho_367" data-name="Caminho 367" d="M99.811,20.475a5.011,5.011,0,0,0-5.233-3.812c-3.938-.012-7.875-.032-11.812.02-.863.012-1.155-.28-1.326-1.082-.813-3.813-1.678-7.616-2.541-11.419A4.977,4.977,0,0,0,73.669.014C67,.008,60.327-.03,53.658.054a14.355,14.355,0,0,0-3.219.884,1.9,1.9,0,0,1-.921-.006A14.421,14.421,0,0,0,46.3.053C39.627-.029,32.956.008,26.285.014A4.97,4.97,0,0,0,21.067,4.2C20.2,8.029,19.328,11.864,18.5,15.708c-.157.729-.437.982-1.212.973-3.905-.045-7.81-.025-11.715-.019C2.028,16.666,0,18.694,0,22.231Q0,36.29,0,50.351c0,3.917,2.4,6.3,6.335,6.31H8.878c-.37,1.777-.743,3.607-1.133,5.434Q4.385,77.827,1.022,93.558c-.661,3.105.49,5,3.86,6.442H47.641c.681-.349,1.354-.713,2.048-1.036a.787.787,0,0,1,.59,0c.694.322,1.367.687,2.048,1.036H95.086a11.908,11.908,0,0,0,1.9-.927,4.577,4.577,0,0,0,2.047-4.826c-1.3-6.423-2.692-12.828-4.056-19.239Q93.1,66.2,91.219,57.4c-.053-.25-.065-.507-.093-.737.93,0,1.826,0,2.722,0a5.794,5.794,0,0,0,5.935-4.38,1.7,1.7,0,0,1,.185-.321V20.713a1.076,1.076,0,0,1-.157-.238M51.66,5.5c0-1.619.556-2.157,2.179-2.158q9.859,0,19.718,0c1.232,0,1.795.342,2.037,1.386.91,3.922,1.781,7.854,2.693,11.894H70.932c-.282-1.624-.54-3.25-.859-4.863-.09-.458-.243-1.077-.575-1.275a2.679,2.679,0,0,0-1.762-.355,1.372,1.372,0,0,0-.988,1.686c.227,1.574.5,3.141.771,4.781H62.431c-.06-1.207-.116-2.4-.18-3.59-.025-.455-.051-.91-.1-1.362a1.661,1.661,0,0,0-1.779-1.66,1.7,1.7,0,0,0-1.539,1.91c.047,1.3.137,2.6.2,3.9.013.251,0,.5,0,.81h-7.3c-.026-.3-.072-.574-.072-.853q-.008-5.127,0-10.252M22.89,11.2q.666-3,1.341-5.991c.336-1.5.793-1.87,2.356-1.871q9.759,0,19.518,0c1.638,0,2.2.533,2.2,2.136.011,3.674,0,7.348,0,11.1H40.894c.076-1.5.14-2.983.232-4.464a1.78,1.78,0,0,0-1.138-2.034,1.607,1.607,0,0,0-2.152,1.46c-.148,1.65-.206,3.308-.308,5.057H32.437c.231-1.348.451-2.627.669-3.906.044-.257.089-.514.109-.773a1.639,1.639,0,0,0-1.34-1.943,1.663,1.663,0,0,0-1.942,1.482c-.3,1.6-.557,3.2-.834,4.8-.016.093-.05.183-.093.335h-7.3c.4-1.819.787-3.608,1.183-5.4M7.008,53.332c-.39,0-.781.012-1.17-.005a2.415,2.415,0,0,1-2.485-2.37c-.047-4.159-.017-8.318-.017-12.587H9.915c.024.314.064.6.065.875q.006,5.559,0,11.118c0,2.053-.92,2.961-2.973,2.969m41.3,34.748c0,2.148.009,4.3,0,6.443-.009,1.608-.567,2.149-2.194,2.149q-19.86,0-39.721,0c-1.834,0-2.462-.773-2.074-2.6,2.557-12.012,5.011-24.048,7.742-36.02a58.956,58.956,0,0,0,1.255-14.413c-.033-1.72-.005-3.441-.005-5.274H25.28c-.2,1.2-.381,2.343-.568,3.482-.068.417-.163.831-.206,1.25a1.629,1.629,0,0,0,1.341,1.852,1.566,1.566,0,0,0,1.891-1.268c.3-1.4.513-2.812.765-4.22.063-.349.138-.7.216-1.085h7.7c-.079,1.513-.208,2.967-.2,4.42a2.511,2.511,0,0,0,.512,1.67,1.864,1.864,0,0,0,1.649.363,2.1,2.1,0,0,0,1.068-1.424c.223-1.635.241-3.3.343-5.015h3.548v1.06c0,3.709-.008,7.418,0,11.128a5.685,5.685,0,0,0,4.353,5.845c.767.225.623.708.623,1.2q.009,15.228,0,30.456m.675-34.763a2.3,2.3,0,0,1-2.267-2.046c-.071-4.28-.029-8.562-.029-12.9h6.55c.023.287.065.566.065.844q.006,5.608,0,11.217a2.553,2.553,0,0,1-2.858,2.9c-.487,0-.977.021-1.462-.015m46.66,40.764c.386,1.814-.25,2.591-2.083,2.591q-19.862,0-39.723,0c-1.622,0-2.182-.543-2.182-2.158q-.009-18.5-.016-37c0-.651.152-.942.839-1.137a5.664,5.664,0,0,0,4.145-5.517c.028-3.775.009-7.55.009-11.324V38.367h3.541c.1,1.674.184,3.32.309,4.964a1.6,1.6,0,0,0,1.578,1.646,1.658,1.658,0,0,0,1.734-1.9c-.042-1.268-.132-2.534-.195-3.8-.014-.284,0-.568,0-.9H71.26c.258,1.444.518,2.905.778,4.365.046.255.08.514.141.766a1.66,1.66,0,1,0,3.257-.6c-.177-1.124-.388-2.242-.576-3.363-.058-.348-.091-.7-.146-1.139H86.655c0,.353,0,.7,0,1.043.008,3.97-.128,7.947.079,11.906a43.948,43.948,0,0,0,1.232,6.692q3.826,18.021,7.682,36.035M93.641,53.332c-.454,0-.912.021-1.364-.017a2.363,2.363,0,0,1-2.261-2.27C89.976,46.854,90,42.663,90,38.37h6.58c.022.321.058.6.058.884q0,5.559,0,11.118c0,2.026-.95,2.953-3,2.96m3-18.415H3.332c0-4.47-.014-8.86.012-13.249a1.572,1.572,0,0,1,1.5-1.634A7.643,7.643,0,0,1,5.917,20q44.069,0,88.137.008a3.321,3.321,0,0,1,1.691.272,2,2,0,0,1,.853,1.4c.065,4.388.038,8.778.038,13.243" fill="#fff"/>
    <path id="Caminho_368" data-name="Caminho 368" d="M20.911,73.38A1.672,1.672,0,0,0,19,74.893c-.021.1-.032.192-.048.288q-.76,4.413-1.521,8.825C17,86.5,16.582,89,16.1,91.843c.217.3.474.983.953,1.222a2.063,2.063,0,0,0,1.689-.106,2.132,2.132,0,0,0,.755-1.373c.616-3.317,1.174-6.645,1.744-9.971.355-2.079.729-4.156,1.034-6.242a1.589,1.589,0,0,0-1.364-1.993" fill="#fff"/>
    <path id="Caminho_369" data-name="Caminho 369" d="M36.261,73.354c-1.012-.037-1.665.671-1.734,1.911-.15,2.661-.289,5.322-.432,7.983q-.2,4.042-.4,8.083a1.689,1.689,0,0,0,1.066,1.879c1.168.459,2.193-.338,2.275-1.848q.435-7.983.817-15.969c.06-1.23-.572-2-1.59-2.039" fill="#fff"/>
    <path id="Caminho_370" data-name="Caminho 370" d="M25,50.034a1.7,1.7,0,0,0-1.958,1.573c-.24,1.308-.462,2.62-.688,3.93-.442,2.558-.881,5.116-1.29,7.49-.042,1.163.5,1.864,1.388,2A1.68,1.68,0,0,0,24.361,63.5q1-5.655,1.958-11.318A1.724,1.724,0,0,0,25,50.034" fill="#fff"/>
    <path id="Caminho_371" data-name="Caminho 371" d="M37.477,50.012A1.672,1.672,0,0,0,35.74,51.72q-.312,5.638-.583,11.28a1.717,1.717,0,0,0,1.625,2.01,1.742,1.742,0,0,0,1.695-1.868q.157-2.868.308-5.736h.008c.089-1.848.2-3.695.257-5.544a1.643,1.643,0,0,0-1.573-1.85" fill="#fff"/>
    <path id="Caminho_372" data-name="Caminho 372" d="M80.97,74.923a1.65,1.65,0,0,0-1.982-1.531c-.949.17-1.412.9-1.3,2.051.022.226.057.451.1.675q.748,4.365,1.5,8.729c.395,2.3.781,4.607,1.191,6.907a1.724,1.724,0,0,0,1.789,1.578,1.677,1.677,0,0,0,1.526-1.763c-.012-.142-.016-.339-.049-.53q-1.38-8.06-2.773-16.116" fill="#fff"/>
    <path id="Caminho_373" data-name="Caminho 373" d="M65.889,83.462c-.152-2.824-.255-5.652-.5-8.468a2.167,2.167,0,0,0-1.018-1.468,1.7,1.7,0,0,0-1.583.23,2.521,2.521,0,0,0-.639,1.709c.054,2.533.224,5.065.356,7.6.149,2.857.277,5.715.464,8.569a1.67,1.67,0,0,0,1.752,1.7,1.708,1.708,0,0,0,1.557-1.983c-.121-2.63-.26-5.259-.392-7.889" fill="#fff"/>
    <path id="Caminho_374" data-name="Caminho 374" d="M78.919,63.223c-.021-.179-.039-.439-.084-.695q-.942-5.418-1.892-10.836c-.221-1.262-.985-1.889-2.038-1.685-.975.188-1.45,1.061-1.24,2.279q.366,2.112.734,4.221c.4,2.333.79,4.671,1.211,7a1.676,1.676,0,0,0,1.82,1.524,1.65,1.65,0,0,0,1.489-1.81" fill="#fff"/>
    <path id="Caminho_375" data-name="Caminho 375" d="M64.812,63c-.067-1.788-.177-3.575-.269-5.362h-.01c-.1-1.95-.19-3.9-.3-5.849a1.674,1.674,0,1,0-3.313.216c.174,3.705.377,7.408.571,11.112.06,1.15.723,1.89,1.682,1.888A1.724,1.724,0,0,0,64.812,63" fill="#fff"/>
    <path id="Caminho_376" data-name="Caminho 376" d="M14.814,25.015q-3.161-.028-6.321,0a1.667,1.667,0,1,0,.017,3.316c1.037.018,2.073,0,3.112,0,1.069,0,2.138.015,3.208,0a1.664,1.664,0,1,0-.016-3.316" fill="#fff"/>
    <path id="Caminho_377" data-name="Caminho 377" d="M44.9,25.018q-3.258-.037-6.516,0a1.655,1.655,0,1,0,.027,3.308c1.069.027,2.139.006,3.209.006,1.1,0,2.205.022,3.307-.007a1.657,1.657,0,1,0-.027-3.309" fill="#fff"/>
    <path id="Caminho_378" data-name="Caminho 378" d="M61.514,25.015c-1.037-.024-2.075,0-3.112,0-1.1,0-2.205-.02-3.307.006a1.661,1.661,0,1,0,.017,3.312q3.208.03,6.419,0a1.617,1.617,0,0,0,1.756-1.662,1.636,1.636,0,0,0-1.773-1.651" fill="#fff"/>
    <path id="Caminho_379" data-name="Caminho 379" d="M76.536,25.017q-3.208-.036-6.419,0a1.66,1.66,0,1,0-.034,3.313c1.069.025,2.139,0,3.209,0s2.14.017,3.209,0a1.661,1.661,0,1,0,.035-3.313" fill="#fff"/>
    <path id="Caminho_380" data-name="Caminho 380" d="M91.47,25.015q-3.161-.027-6.321,0a1.664,1.664,0,1,0-.008,3.316c1.037.019,2.075,0,3.113,0,1.069,0,2.139.014,3.209,0a1.666,1.666,0,1,0,.007-3.315" fill="#fff"/>
    <path id="Caminho_381" data-name="Caminho 381" d="M29.883,25.017q-3.208-.036-6.419,0a1.661,1.661,0,1,0-.03,3.313c1.069.025,2.139,0,3.209,0s2.14.018,3.21,0a1.66,1.66,0,1,0,.03-3.313" fill="#fff"/>
  </g>
</svg>
