<svg xmlns="http://www.w3.org/2000/svg" xmlns:xlink="http://www.w3.org/1999/xlink" width="101.683" height="100" viewBox="0 0 101.683 100">
  <defs>
    <clipPath id="clip-path">
      <rect id="Ret창ngulo_146" data-name="Ret창ngulo 146" width="101.683" height="100" fill="none"/>
    </clipPath>
  </defs>
  <g id="Grupo_236" data-name="Grupo 236" transform="translate(-485.658 -2005)">
    <g id="Grupo_172" data-name="Grupo 172" transform="translate(485.658 2005)">
      <g id="Grupo_171" data-name="Grupo 171" clip-path="url(#clip-path)">
        <path id="Caminho_362" data-name="Caminho 362" d="M99.208,91.1a1.106,1.106,0,0,1-.714-1.109c.028-4.466,0-8.933.04-13.4a1.326,1.326,0,0,1,.569-.952,4.768,4.768,0,0,0,2.433-5.364,4.709,4.709,0,0,0-4.722-3.632c-2.645-.015-5.289,0-8.005,0a12.539,12.539,0,0,0,.148-1.775,4.562,4.562,0,0,0-2.537-3.986.984.984,0,0,1-.633-1.06c.042-.855.011-1.713.011-2.693h5.045c-.4-2.413-.763-4.692-1.143-6.97-.49-2.933-1.019-5.861-1.458-8.8a2.257,2.257,0,0,1,.384-1.507,5.507,5.507,0,0,0-2.171-8.422.941.941,0,0,1-.67-1.021c.034-1.786-.018-3.574.029-5.359a.979.979,0,0,0-.8-1.124c-1.061-.349-2.093-.791-3.308-1.26L94.74,17.437c-.391-.2-.619-.336-.862-.434Q72.761,8.553,51.632.133a2.342,2.342,0,0,0-1.58.008Q28.966,8.527,7.906,16.976c-.259.1-.508.234-.921.425.542.238.917.416,1.3.57q8.187,3.279,16.378,6.547c.447.178.777.316.774.938-.028,6.154-.018,12.308-.021,18.462,0,.126-.028.252-.056.486-2.2,0-4.373-.072-6.543.015A12.324,12.324,0,0,0,7.772,51.31a12.591,12.591,0,0,0,3.176,15.547l.617.51c-.332.15-.581.272-.838.378A16.49,16.49,0,0,0,.184,80.871c-.04.225-.122.441-.184.661v3.575c.182.8.341,1.608.549,2.4A16.611,16.611,0,0,0,14.343,99.825,3.4,3.4,0,0,1,14.9,100H97.913c.234-.106.466-.218.7-.317a4.586,4.586,0,0,0,3.039-4.059A4.5,4.5,0,0,0,99.208,91.1M81.333,53.886c.656-3.955,1.3-7.85,1.965-11.849h1.818c.656,3.944,1.307,7.866,1.97,11.849Zm-8.27-8.957a1.556,1.556,0,0,1-.547.964A21.468,21.468,0,0,1,63.555,50.6c-9.545,2.576-19.024,2.508-28.35-1.041a18.261,18.261,0,0,1-6.06-3.7,1.682,1.682,0,0,1-.523-1.076C28.591,38.7,28.6,32.613,28.6,26.524a3.749,3.749,0,0,1,.052-.4c1.278.506,2.53,1,3.779,1.5q8.742,3.5,17.476,7.013a2.323,2.323,0,0,0,1.889-.011q10.158-4.095,20.335-8.144c.273-.109.548-.21.952-.364,0,6.37.008,12.59-.024,18.81m2.166,2.827a1.3,1.3,0,0,1,.734-.172c1.016-.018,2.032-.008,3.181-.008-.187,1.138-.346,2.109-.512,3.122H71.644c1.218-1.006,2.389-1.991,3.585-2.942M37.891,53.981c1.822.036,3.621.727,5.449,1a50.773,50.773,0,0,0,19.12-.763,10.27,10.27,0,0,1,2.249-.272c4.071-.026,8.143-.012,12.214-.012h1.152c-.163,1.067-.311,2.039-.481,3.146h4.979v3.208H81.421q-30.832,0-61.665,0a6.884,6.884,0,0,1-1.286-.061,3.194,3.194,0,0,1-2.57-3.4,3.114,3.114,0,0,1,3.026-2.877c6.322-.033,12.646-.092,18.965.033M86.586,36.45a2.378,2.378,0,1,1-2.411-2.371,2.4,2.4,0,0,1,2.411,2.371M81.777,26.092a1.033,1.033,0,0,1,.852,1.281,5.131,5.131,0,0,0,0,1.188A3.09,3.09,0,0,1,80.942,32.1a5.17,5.17,0,0,0-1.206,7.574,2.2,2.2,0,0,1,.412,2c-.182.869-.309,1.749-.467,2.668H76.333V24.6a8.137,8.137,0,0,1,1.825.154c1.225.385,2.394.95,3.619,1.336M16.756,17.929c-.353-.141-.695-.307-1.245-.553,1.377-.56,2.553-1.046,3.733-1.518Q34.613,9.709,49.989,3.586A2.219,2.219,0,0,1,51.472,3.5q17.04,6.759,34.054,13.588c.152.061.3.138.695.324-2.415.971-4.652,1.762-6.788,2.766a4.972,4.972,0,0,1-4.3.038c-7.532-2.958-15.111-5.8-22.674-8.675-.305-.116-.614-.221-1.054-.378-.371.973-.729,1.909-1.123,2.943l22.53,8.59c-.417.207-.658.348-.915.451-6.745,2.7-13.488,5.412-20.248,8.078a2.355,2.355,0,0,1-1.58.013Q33.4,24.619,16.756,17.929M9.541,56.815A9.531,9.531,0,0,1,18.677,47.6c2.348-.067,4.7-.029,7.048-.008a1.557,1.557,0,0,1,.885.3c1.142.9,2.253,1.83,3.513,2.864-2.408,0-4.711,0-7.014,0-1.324,0-2.648-.012-3.972,0a6.351,6.351,0,1,0,.04,12.7q17.571.024,35.144.006H83.409a5.737,5.737,0,0,1,.991.024,1.577,1.577,0,0,1,.008,3.127,4.173,4.173,0,0,1-.792.025q-32.115,0-64.232,0a9.548,9.548,0,0,1-9.843-9.821m85.743,25.7V90.4c-.252.023-.5.067-.755.067q-38.972,0-77.944,0a7.144,7.144,0,0,1-.392-14.282c.5-.014.993-.008,1.489-.008h77.6v3.155H66.8v3.19ZM16.81,73a10.327,10.327,0,0,0-1,20.628c.5.025.993.021,1.489.021h78.73a6.383,6.383,0,0,1,1.09.026,1.576,1.576,0,0,1,0,3.126,4.261,4.261,0,0,1-.792.024q-39.712,0-79.425,0a13.5,13.5,0,1,1-.308-26.991c13.2-.035,26.409-.01,39.613-.01H96.113a5.736,5.736,0,0,1,.991.024,1.575,1.575,0,0,1,.021,3.123,5.979,5.979,0,0,1-1.089.029q-39.614,0-79.226,0" fill="#fff"/>
        <rect id="Ret창ngulo_145" data-name="Ret창ngulo 145" width="44.397" height="3.053" transform="translate(15.932 84.167)" fill="#fff"/>
      </g>
    </g>
  </g>
</svg>
