<svg xmlns="http://www.w3.org/2000/svg" xmlns:xlink="http://www.w3.org/1999/xlink" width="56" height="50.515" viewBox="0 0 56 50.515">
  <defs>
    <clipPath id="clip-path">
      <rect id="Retângulo_179" data-name="Retângulo 179" width="56" height="50.515" fill="#fff"/>
    </clipPath>
  </defs>
  <g id="Grupo_220" data-name="Grupo 220" clip-path="url(#clip-path)">
    <path id="Caminho_424" data-name="Caminho 424" d="M44.67,36.238a24.244,24.244,0,0,0,0-32.134,1.576,1.576,0,0,1,.066-2.16l1.48-1.48a1.571,1.571,0,0,1,2.29.063,29.494,29.494,0,0,1,0,39.29,1.541,1.541,0,0,1-1.131.525,1.524,1.524,0,0,1-1.159-.463l-1.48-1.48a1.578,1.578,0,0,1-.066-2.162m-33.341,0a24.259,24.259,0,0,1,0-32.134,1.566,1.566,0,0,0-.066-2.16L9.784.464A1.519,1.519,0,0,0,8.626,0,1.533,1.533,0,0,0,7.5.527a29.494,29.494,0,0,0,0,39.29,1.538,1.538,0,0,0,1.131.525,1.511,1.511,0,0,0,1.157-.463l1.48-1.48a1.568,1.568,0,0,0,.066-2.162M17.9,29.745a1.569,1.569,0,0,1-.1,2.119l-1.487,1.483a1.565,1.565,0,0,1-2.315-.1A20.283,20.283,0,0,1,14,7.092a1.569,1.569,0,0,1,2.315-.1L17.8,8.48a1.569,1.569,0,0,1,.1,2.119,15.045,15.045,0,0,0,0,19.146m14.428,16.43A4.316,4.316,0,1,1,23.7,46.2V13.789a4.316,4.316,0,0,1,8.631,0c-.125,11.48,0,20.9,0,32.386M38.1,29.745a1.571,1.571,0,0,0,.1,2.119l1.487,1.483a1.538,1.538,0,0,0,1.185.464A1.519,1.519,0,0,0,42,33.252,20.267,20.267,0,0,0,42,7.092a1.5,1.5,0,0,0-1.131-.56,1.529,1.529,0,0,0-1.185.461L38.2,8.48a1.57,1.57,0,0,0-.1,2.119,15.045,15.045,0,0,1,0,19.146" transform="translate(0 0)" fill="#fff" fill-rule="evenodd"/>
  </g>
</svg>
