<svg id="Grupo_180" data-name="Grupo 180" xmlns="http://www.w3.org/2000/svg" xmlns:xlink="http://www.w3.org/1999/xlink" width="123.979" height="100" viewBox="0 0 123.979 100">
  <defs>
    <clipPath id="clip-path">
      <rect id="Retângulo_150" data-name="Retângulo 150" width="123.979" height="100" fill="none"/>
    </clipPath>
  </defs>
  <g id="Grupo_179" data-name="Grupo 179" clip-path="url(#clip-path)">
    <path id="Caminho_382" data-name="Caminho 382" d="M123.924,30.685a4.511,4.511,0,0,0-.791-2.389c-2.634-3.643-5.2-7.357-8.108-10.775-2.349-2.761-3.641-5.646-3.066-9.27a6.164,6.164,0,0,0,.006-1A7,7,0,0,0,104.714.007c-2.623-.015-5.246,0-7.87,0q-38.726,0-77.452,0a7,7,0,0,0-7.378,7.365c-.008,1.541-.046,3.085.015,4.624a3.5,3.5,0,0,1-.783,2.394q-5.283,6.966-10.473,14a3.8,3.8,0,0,0-.722,2.036c-.071,3.5-.056,7-.026,10.5a6.936,6.936,0,0,0,7.044,7.055c1.627.005,3.256-.2,4.943-.308v1.27q0,21.621,0,43.241c0,5,2.815,7.814,7.811,7.814h84.322c4.995,0,7.818-2.819,7.819-7.807q0-21.621,0-43.242V47.666c1.645.118,3.166.314,4.687.319a6.968,6.968,0,0,0,7.3-7.3c.015-3.333.054-6.667-.033-10M16.037,6.844A2.944,2.944,0,0,1,18.849,4.02c.414-.033.833-.015,1.249-.015h83.8c3.135,0,4.067.943,4.068,4.11v3.809H16.022c0-1.757-.053-3.421.015-5.079M12,40.861A3,3,0,0,1,8.857,44c-.623.019-1.248.027-1.869-.006a2.944,2.944,0,0,1-2.951-2.938c-.052-2.95-.014-5.9-.014-8.994h7.989q0,1.286,0,2.566c0,2.079.026,4.158-.01,6.236M47.9,95.91H28.059V64.068H47.9ZM107.968,48.8q0,21.619,0,43.238c0,2.968-.993,3.957-3.972,3.957h-52V94.492q0-15.808,0-31.617c0-2.294-.58-2.873-2.875-2.873q-11.179,0-22.359,0c-2.131,0-2.751.618-2.751,2.744q0,15.807,0,31.616v1.625c-1.833,0-3.5.055-5.153-.016a2.941,2.941,0,0,1-2.827-2.81c-.034-.414-.016-.832-.016-1.249q0-21.494,0-42.988V47.491c3.55.756,6.984,1.149,10-1.543a8.231,8.231,0,0,0,5.948,2.087A8.271,8.271,0,0,0,38,45.931a8.189,8.189,0,0,0,5.952,2.1,8.26,8.26,0,0,0,6.044-2.106,8.148,8.148,0,0,0,5.943,2.106,8.242,8.242,0,0,0,6.049-2.107,8.142,8.142,0,0,0,5.939,2.107,8.228,8.228,0,0,0,6.052-2.109,8.117,8.117,0,0,0,5.935,2.108,8.114,8.114,0,0,0,6.047-2.115,8.168,8.168,0,0,0,5.94,2.116,8.19,8.19,0,0,0,6.04-2.092c2.955,2.672,6.383,2.334,10.031,1.542ZM16.017,32.053h7.99v6.08c0,.831,0,1.663,0,2.494a5.034,5.034,0,0,1-.049.87c-.354,1.93-1.9,2.7-4.989,2.5a2.958,2.958,0,0,1-2.935-2.958c-.051-2.948-.014-5.9-.014-8.984m12-.005h7.935a88.461,88.461,0,0,1-.084,9.463c-.25,2.311-1.814,2.634-4.8,2.488a2.945,2.945,0,0,1-3.029-2.86c-.065-2.986-.018-5.975-.018-9.091m12.009.016h7.946c0,3.125.079,6.192-.03,9.253C47.878,43.079,46.466,44,44.259,44c-2.691.008-4.127-.8-4.2-2.66-.122-3.062-.033-6.132-.033-9.278M52,32.052h7.953c0,3.15.147,6.262-.058,9.351-.114,1.714-1.162,2.827-4.733,2.607-1.8-.111-3.106-1.174-3.143-2.881C51.957,38.143,52,35.155,52,32.052m11.984,0H71.95c0,3.154.108,6.262-.04,9.359C71.819,43.33,70.3,44.067,67.277,44a3.057,3.057,0,0,1-3.268-2.757,9.745,9.745,0,0,1-.02-1c0-2.7,0-5.391,0-8.193M83.973,40.7A3.033,3.033,0,0,1,80.734,44a18.159,18.159,0,0,1-1.994-.022,2.853,2.853,0,0,1-2.707-2.641c-.084-3.063-.026-6.131-.026-9.308h7.972v2.938c0,1.912.016,3.825-.006,5.737m4.015-8.611h7.973v9.052a1.036,1.036,0,0,1-.008.125c-.235,2-1.591,2.794-4.664,2.734-1.9-.038-3.241-1.118-3.282-2.858-.069-2.987-.019-5.977-.019-9.053m19.969,8.788a2.99,2.99,0,0,1-3.038,3.115c-.664.028-1.331.032-1.994,0a2.948,2.948,0,0,1-2.934-2.956c-.053-2.618-.018-5.238-.02-7.857V32.052h8v3.963c0,1.622.026,3.244-.011,4.864M6.075,27.935c.842-1.129,1.578-2.118,2.318-3.1,1.947-2.6,3.924-5.175,5.828-7.806a2.227,2.227,0,0,1,2.048-1.044q38.223.044,76.445.023c5.038,0,10.077.022,15.114-.02a2.023,2.023,0,0,1,1.852.936c2.442,3.32,4.93,6.606,7.4,9.906.241.322.46.659.773,1.11ZM119.831,41.5c-.241,2.278-1.777,2.646-4.8,2.495A2.947,2.947,0,0,1,112,41.146c-.066-2.987-.019-5.977-.019-9.1h7.936a90.486,90.486,0,0,1-.082,9.456" fill="#fff"/>
    <path id="Caminho_383" data-name="Caminho 383" d="M97.307,60Q79,60,60.7,60c-2.061,0-2.707.635-2.709,2.661q0,9.312,0,18.623c0,2.1.634,2.712,2.786,2.713q9.057,0,18.115,0,9.183,0,18.366,0c2.056,0,2.709-.641,2.711-2.663q.006-9.312,0-18.623c0-2.059-.638-2.709-2.663-2.71m-1.39,19.91H62.067V64.066h33.85Z" fill="#fff"/>
    <path id="Caminho_384" data-name="Caminho 384" d="M19.816,9.98a9.14,9.14,0,0,0,1.123.007V10c.291,0,.583.01.874,0a2,2,0,1,0,.011-3.991,13.029,13.029,0,0,0-2,.024,1.9,1.9,0,0,0-1.8,1.9A1.96,1.96,0,0,0,19.816,9.98" fill="#fff"/>
    <path id="Caminho_385" data-name="Caminho 385" d="M29.016,10C31.039,10,32,9.352,31.993,7.99S31.047,6,28.991,6c-2.029,0-2.984.646-2.974,2.011s.954,1.989,3,1.989" fill="#fff"/>
    <path id="Caminho_386" data-name="Caminho 386" d="M36.346,10c.208.005.416,0,.625,0,.249,0,.5.007.749,0,1.383-.041,2.25-.8,2.269-1.97a2.025,2.025,0,0,0-2.211-2.024c-.458-.016-.916-.01-1.374,0-1.49.024-2.373.753-2.392,1.968S34.89,9.969,36.346,10" fill="#fff"/>
    <path id="Caminho_387" data-name="Caminho 387" d="M44.054,85.99a2.014,2.014,0,0,0,1.934-2.175c.03-1.29.007-2.582.007-3.874,0-1.249.023-2.5-.007-3.748a2,2,0,1,0-3.98-.01q-.041,3.812,0,7.623a2,2,0,0,0,2.047,2.184" fill="#fff"/>
  </g>
</svg>
