<svg id="Grupo_163" data-name="Grupo 163" xmlns="http://www.w3.org/2000/svg" xmlns:xlink="http://www.w3.org/1999/xlink" width="155" height="35.237" viewBox="0 0 155 35.237">
  <defs>
    <clipPath id="clip-path">
      <rect id="Retângulo_67" data-name="Retângulo 67" width="155" height="35.237" fill="none"/>
    </clipPath>
  </defs>
  <g id="Grupo_162" data-name="Grupo 162" clip-path="url(#clip-path)">
    <path id="Caminho_180" data-name="Caminho 180" d="M896.624,68.514H902.3a.378.378,0,0,1,.378.378V92.6a.378.378,0,0,1-.378.378h-5.673a.378.378,0,0,1-.378-.378V68.892a.378.378,0,0,1,.378-.378" transform="translate(-758.401 -57.976)" fill="#7fb9a2"/>
    <path id="Caminho_181" data-name="Caminho 181" d="M646.332,60.947a11.122,11.122,0,0,1,19.007,7.843l-.047,14.638a.378.378,0,0,1-.378.376h-5.408a.377.377,0,0,1-.378-.377l0-14.614a4.784,4.784,0,0,0-9.568,0l.021,14.614a.377.377,0,0,1-.377.378h-5.516a.378.378,0,0,1-.378-.375l-.118-14.583a4.784,4.784,0,0,0-9.568,0l0,14.58a.378.378,0,0,1-.378.378h-5.58a.377.377,0,0,1-.378-.379l.039-14.636a11.122,11.122,0,0,1,18.986-7.863Z" transform="translate(-530.81 -48.799)" fill="#7fb9a2"/>
    <path id="Caminho_182" data-name="Caminho 182" d="M964.91,32.972l-.014-7.155a.315.315,0,0,0-.316-.315l-3.263.006a.315.315,0,0,0-.315.316l.007,3.262a.315.315,0,0,1-.315.316l-3.262.006a.315.315,0,0,0-.315.316l.006,3.262a.315.315,0,0,0,.316.315l7.156-.014a.315.315,0,0,0,.315-.316" transform="translate(-809.91 -21.58)" fill="#7c828d"/>
    <path id="Caminho_183" data-name="Caminho 183" d="M939.5,3.811,939.5.548a.315.315,0,0,0-.316-.315l-7.154.014a.315.315,0,0,0-.315.316l.012,7.155a.315.315,0,0,0,.316.315l3.263-.006a.315.315,0,0,0,.315-.316l-.006-3.262a.315.315,0,0,1,.315-.316l3.262-.006a.315.315,0,0,0,.315-.316" transform="translate(-788.413 -0.197)" fill="#de5d1a"/>
    <path id="Caminho_184" data-name="Caminho 184" d="M199.548,82.155a.378.378,0,0,1-.378-.378V67.6c0-3.083-2.338-5.1-6.057-5.1a5.6,5.6,0,0,0-5.042,3.472c-2.421,5.249,2.857,10.777,8.348,8.972q.143-.047.287-.1a.376.376,0,0,1,.5.357V81.43a.382.382,0,0,1-.294.369,17.5,17.5,0,0,1-4.009.567c-7.969,0-12.326-6.11-12.326-12.857,0-8.289,5.526-13.814,12.645-13.814,7.756,0,12.75,4.889,12.75,11.583v14.5a.378.378,0,0,1-.378.378Z" transform="translate(-152.802 -47.13)" fill="#7c828d"/>
    <path id="Caminho_185" data-name="Caminho 185" d="M373.649,22.093v5.833a.378.378,0,0,1-.378.378h-4.185a.378.378,0,0,0-.378.378v9.186c0,1.913.955,2.868,2.337,2.868h2.225a.378.378,0,0,1,.378.378v6.046a.378.378,0,0,1-.378.378h-3.182c-6.27,0-8.182-3.719-8.182-9.456V15.186a.378.378,0,0,1,.378-.377h6.047a.378.378,0,0,1,.378.377v6.151a.378.378,0,0,0,.378.378h4.185a.378.378,0,0,1,.378.378" transform="translate(-306.245 -12.531)" fill="#7c828d"/>
    <path id="Caminho_186" data-name="Caminho 186" d="M462.077,81.992a.378.378,0,0,1-.378-.378V67.435c0-3.083-2.337-5.1-6.055-5.1a5.6,5.6,0,0,0-5.042,3.473c-2.42,5.248,2.857,10.776,8.347,8.972l.288-.1a.376.376,0,0,1,.5.357v6.228a.382.382,0,0,1-.294.369,17.5,17.5,0,0,1-4.01.567c-7.969,0-12.325-6.11-12.325-12.857,0-8.289,5.525-13.814,12.645-13.814,7.755,0,12.75,4.889,12.75,11.583v14.5a.378.378,0,0,1-.378.378Z" transform="translate(-374.955 -46.992)" fill="#7c828d"/>
    <path id="Caminho_187" data-name="Caminho 187" d="M25.181.377A.378.378,0,0,0,24.8,0H18.842a.378.378,0,0,0-.378.378V9.331a.376.376,0,0,1-.514.349,15.171,15.171,0,0,0-5.389-.936C5.49,8.744,0,14.232,0,22.465c0,6.7,4.327,12.772,12.244,12.772a17.331,17.331,0,0,0,3.981-.564.382.382,0,0,0,.293-.369v-6.18a.376.376,0,0,0-.5-.357l-.253.086c-5.679,1.88-10.994-4.142-8.085-9.369A5.475,5.475,0,0,1,12.455,15.5c3.7,0,6.017,2.005,6.017,5.067V34.648a.378.378,0,0,0,.378.378h6.377Z" fill="#7c828d"/>
  </g>
</svg>
