<svg xmlns="http://www.w3.org/2000/svg" xmlns:xlink="http://www.w3.org/1999/xlink" width="175" height="39.783" viewBox="0 0 175 39.783">
  <defs>
    <clipPath id="clip-path">
      <rect id="Retângulo_172" data-name="Retângulo 172" width="175" height="39.783" fill="none"/>
    </clipPath>
  </defs>
  <g id="Grupo_243" data-name="Grupo 243" transform="translate(-31 -50.282)">
    <g id="Grupo_212" data-name="Grupo 212" transform="translate(31 50.282)">
      <g id="Grupo_211" data-name="Grupo 211" transform="translate(0 0)" clip-path="url(#clip-path)">
        <path id="Caminho_417" data-name="Caminho 417" d="M278.98,20.805h-6.4a.426.426,0,0,0-.426.426V48a.426.426,0,0,0,.426.427h6.4a.426.426,0,0,0,.426-.427V21.231a.426.426,0,0,0-.426-.426" transform="translate(-116.518 -8.908)" fill="#fff"/>
        <path id="Caminho_418" data-name="Caminho 418" d="M220.884,17.512a12.519,12.519,0,0,0-8.9,3.7l-.021-.023a12.557,12.557,0,0,0-21.436,8.878l-.044,16.524a.426.426,0,0,0,.426.427h6.3a.426.426,0,0,0,.427-.426l0-16.462a5.4,5.4,0,0,1,10.8,0l.134,16.465a.426.426,0,0,0,.426.423h6.228a.426.426,0,0,0,.426-.427l-.023-16.5a5.4,5.4,0,0,1,10.8,0l0,16.5a.426.426,0,0,0,.427.426h6.105a.426.426,0,0,0,.426-.425l.053-16.526a12.556,12.556,0,0,0-12.556-12.556" transform="translate(-81.552 -7.498)" fill="#fff"/>
        <path id="Caminho_419" data-name="Caminho 419" d="M299.415,8.1a.356.356,0,0,0-.357-.355l-3.684.007a.356.356,0,0,0-.355.357l.007,3.683a.355.355,0,0,1-.355.357l-3.683.007a.357.357,0,0,0-.356.357l.007,3.683a.356.356,0,0,0,.356.356l8.08-.015a.356.356,0,0,0,.355-.357Z" transform="translate(-124.431 -3.316)" fill="#fff"/>
        <path id="Caminho_420" data-name="Caminho 420" d="M287.677,4.475l3.683-.007a.357.357,0,0,0,.355-.357L291.708.427a.355.355,0,0,0-.357-.355l-8.077.015a.357.357,0,0,0-.356.357l.014,8.079a.355.355,0,0,0,.357.355l3.684-.006a.356.356,0,0,0,.356-.357l-.007-3.683a.355.355,0,0,1,.355-.356" transform="translate(-121.129 -0.031)" fill="#fff"/>
        <path id="Caminho_421" data-name="Caminho 421" d="M69.109,16.912c-8.037,0-14.276,6.238-14.276,15.6,0,7.618,4.919,14.516,13.916,14.516a19.741,19.741,0,0,0,4.527-.64.431.431,0,0,0,.332-.417V38.935a.424.424,0,0,0-.562-.4c-.109.037-.216.074-.324.109-6.2,2.039-12.158-4.2-9.425-10.129a6.324,6.324,0,0,1,5.692-3.92c4.2,0,6.838,2.277,6.838,5.757V46.359a.426.426,0,0,0,.426.426h6.824a.426.426,0,0,0,.426-.426V29.99c0-7.558-5.637-13.078-14.394-13.078" transform="translate(-23.476 -7.241)" fill="#fff"/>
        <path id="Caminho_422" data-name="Caminho 422" d="M122.725,12.294H118a.426.426,0,0,1-.426-.427V4.923a.426.426,0,0,0-.426-.427h-6.827a.427.427,0,0,0-.427.427V30.771c0,6.477,2.159,10.676,9.238,10.676h3.593a.426.426,0,0,0,.426-.427V34.194a.426.426,0,0,0-.426-.426h-2.513c-1.561,0-2.639-1.08-2.639-3.239V20.159a.426.426,0,0,1,.426-.426h4.725a.426.426,0,0,0,.426-.427V12.72a.426.426,0,0,0-.426-.425" transform="translate(-47.05 -1.925)" fill="#fff"/>
        <path id="Caminho_423" data-name="Caminho 423" d="M148.827,16.863c-8.038,0-14.276,6.238-14.276,15.6,0,7.618,4.918,14.516,13.916,14.516a19.746,19.746,0,0,0,4.527-.64.43.43,0,0,0,.332-.416V38.885a.425.425,0,0,0-.562-.4c-.109.038-.217.075-.325.11-6.2,2.038-12.157-4.2-9.424-10.129a6.325,6.325,0,0,1,5.693-3.92c4.2,0,6.837,2.277,6.837,5.758V46.309a.426.426,0,0,0,.426.426H162.8a.426.426,0,0,0,.426-.426V29.94c0-7.558-5.639-13.077-14.4-13.077" transform="translate(-57.607 -7.22)" fill="#fff"/>
        <path id="Caminho_424" data-name="Caminho 424" d="M28,0H21.273a.426.426,0,0,0-.426.427V10.535a.424.424,0,0,1-.581.393,17.138,17.138,0,0,0-6.084-1.056C6.2,9.872,0,16.069,0,25.364c0,7.567,4.886,14.419,13.824,14.419a19.563,19.563,0,0,0,4.495-.636.432.432,0,0,0,.332-.417V31.752a.425.425,0,0,0-.562-.4c-.1.034-.19.066-.285.1-6.412,2.123-12.413-4.676-9.129-10.578A6.182,6.182,0,0,1,14.063,17.5c4.172,0,6.793,2.265,6.793,5.721v15.9a.427.427,0,0,0,.427.427h7.2L28.431.426A.427.427,0,0,0,28,0" transform="translate(0 0)" fill="#fff"/>
      </g>
    </g>
  </g>
</svg>
