<svg xmlns="http://www.w3.org/2000/svg" xmlns:xlink="http://www.w3.org/1999/xlink" width="115" height="201.223" viewBox="0 0 115 201.223">
  <defs>
    <clipPath id="clip-path">
      <rect id="Retângulo_136" data-name="Retângulo 136" width="50.805" height="50.741" fill="none"/>
    </clipPath>
  </defs>
  <g id="Grupo_237" data-name="Grupo 237" transform="translate(-785 -1279)">
    <g id="Grupo_236" data-name="Grupo 236">
      <g id="Grupo_168" data-name="Grupo 168" transform="translate(785 1480.223) rotate(-90)">
        <rect id="Retângulo_76" data-name="Retângulo 76" width="7.223" height="7.223" fill="#dc5d1a"/>
        <rect id="Retângulo_77" data-name="Retângulo 77" width="7.224" height="7.223" transform="translate(21.555)" fill="#dc5d1a"/>
        <rect id="Retângulo_78" data-name="Retângulo 78" width="7.224" height="7.223" transform="translate(43.111)" fill="#dc5d1a"/>
        <rect id="Retângulo_79" data-name="Retângulo 79" width="7.224" height="7.223" transform="translate(64.666)" fill="#dc5d1a"/>
        <rect id="Retângulo_80" data-name="Retângulo 80" width="7.224" height="7.223" transform="translate(86.221)" fill="#dc5d1a"/>
        <rect id="Retângulo_81" data-name="Retângulo 81" width="7.224" height="7.223" transform="translate(107.777)" fill="#dc5d1a"/>
        <rect id="Retângulo_82" data-name="Retângulo 82" width="7.224" height="7.223" transform="translate(129.332)" fill="#dc5d1a"/>
        <rect id="Retângulo_86" data-name="Retângulo 86" width="7.223" height="7.223" transform="translate(0 21.556)" fill="#dc5d1a"/>
        <rect id="Retângulo_87" data-name="Retângulo 87" width="7.224" height="7.223" transform="translate(21.555 21.556)" fill="#dc5d1a"/>
        <rect id="Retângulo_88" data-name="Retângulo 88" width="7.224" height="7.223" transform="translate(43.111 21.556)" fill="#dc5d1a"/>
        <rect id="Retângulo_89" data-name="Retângulo 89" width="7.224" height="7.223" transform="translate(64.666 21.556)" fill="#dc5d1a"/>
        <rect id="Retângulo_90" data-name="Retângulo 90" width="7.224" height="7.223" transform="translate(86.221 21.556)" fill="#dc5d1a"/>
        <rect id="Retângulo_91" data-name="Retângulo 91" width="7.224" height="7.223" transform="translate(107.777 21.556)" fill="#dc5d1a"/>
        <rect id="Retângulo_92" data-name="Retângulo 92" width="7.224" height="7.223" transform="translate(129.332 21.556)" fill="#dc5d1a"/>
        <rect id="Retângulo_96" data-name="Retângulo 96" width="7.223" height="7.224" transform="translate(0 43.11)" fill="#dc5d1a"/>
        <rect id="Retângulo_97" data-name="Retângulo 97" width="7.224" height="7.224" transform="translate(21.555 43.11)" fill="#dc5d1a"/>
        <rect id="Retângulo_98" data-name="Retângulo 98" width="7.224" height="7.224" transform="translate(43.111 43.11)" fill="#dc5d1a"/>
        <rect id="Retângulo_99" data-name="Retângulo 99" width="7.224" height="7.224" transform="translate(64.666 43.11)" fill="#dc5d1a"/>
        <rect id="Retângulo_100" data-name="Retângulo 100" width="7.224" height="7.224" transform="translate(86.221 43.11)" fill="#dc5d1a"/>
        <rect id="Retângulo_101" data-name="Retângulo 101" width="7.224" height="7.224" transform="translate(107.777 43.11)" fill="#dc5d1a"/>
        <rect id="Retângulo_102" data-name="Retângulo 102" width="7.224" height="7.224" transform="translate(129.332 43.11)" fill="#dc5d1a"/>
        <rect id="Retângulo_106" data-name="Retângulo 106" width="7.223" height="7.224" transform="translate(0 64.666)" fill="#dc5d1a"/>
        <rect id="Retângulo_107" data-name="Retângulo 107" width="7.224" height="7.224" transform="translate(21.555 64.666)" fill="#dc5d1a"/>
        <rect id="Retângulo_108" data-name="Retângulo 108" width="7.224" height="7.224" transform="translate(43.111 64.666)" fill="#dc5d1a"/>
        <rect id="Retângulo_109" data-name="Retângulo 109" width="7.224" height="7.224" transform="translate(64.666 64.666)" fill="#dc5d1a"/>
        <rect id="Retângulo_110" data-name="Retângulo 110" width="7.224" height="7.224" transform="translate(86.221 64.666)" fill="#dc5d1a"/>
        <rect id="Retângulo_111" data-name="Retângulo 111" width="7.224" height="7.224" transform="translate(107.777 64.666)" fill="#dc5d1a"/>
        <rect id="Retângulo_112" data-name="Retângulo 112" width="7.224" height="7.224" transform="translate(129.332 64.666)" fill="#dc5d1a"/>
        <rect id="Retângulo_113" data-name="Retângulo 113" width="7.223" height="7.224" transform="translate(150.889 64.666)" fill="#dc5d1a"/>
        <rect id="Retângulo_114" data-name="Retângulo 114" width="7.224" height="7.224" transform="translate(172.443 64.666)" fill="#dc5d1a"/>
        <rect id="Retângulo_115" data-name="Retângulo 115" width="7.223" height="7.224" transform="translate(194 64.666)" fill="#dc5d1a"/>
        <rect id="Retângulo_116" data-name="Retângulo 116" width="7.223" height="7.224" transform="translate(0 86.222)" fill="#dc5d1a"/>
        <rect id="Retângulo_117" data-name="Retângulo 117" width="7.224" height="7.224" transform="translate(21.555 86.222)" fill="#dc5d1a"/>
        <rect id="Retângulo_118" data-name="Retângulo 118" width="7.224" height="7.224" transform="translate(43.111 86.222)" fill="#dc5d1a"/>
        <rect id="Retângulo_119" data-name="Retângulo 119" width="7.224" height="7.224" transform="translate(64.666 86.222)" fill="#dc5d1a"/>
        <rect id="Retângulo_120" data-name="Retângulo 120" width="7.224" height="7.224" transform="translate(86.221 86.222)" fill="#dc5d1a"/>
        <rect id="Retângulo_121" data-name="Retângulo 121" width="7.224" height="7.224" transform="translate(107.777 86.222)" fill="#dc5d1a"/>
        <rect id="Retângulo_122" data-name="Retângulo 122" width="7.224" height="7.224" transform="translate(129.332 86.222)" fill="#dc5d1a"/>
        <rect id="Retângulo_123" data-name="Retângulo 123" width="7.223" height="7.224" transform="translate(150.889 86.222)" fill="#dc5d1a"/>
        <rect id="Retângulo_124" data-name="Retângulo 124" width="7.224" height="7.224" transform="translate(172.443 86.222)" fill="#dc5d1a"/>
        <rect id="Retângulo_125" data-name="Retângulo 125" width="7.223" height="7.224" transform="translate(194 86.222)" fill="#dc5d1a"/>
        <rect id="Retângulo_126" data-name="Retângulo 126" width="7.223" height="7.224" transform="translate(0 107.776)" fill="#dc5d1a"/>
        <rect id="Retângulo_127" data-name="Retângulo 127" width="7.224" height="7.224" transform="translate(21.555 107.776)" fill="#dc5d1a"/>
        <rect id="Retângulo_128" data-name="Retângulo 128" width="7.224" height="7.224" transform="translate(43.111 107.776)" fill="#dc5d1a"/>
        <rect id="Retângulo_129" data-name="Retângulo 129" width="7.224" height="7.224" transform="translate(64.666 107.776)" fill="#dc5d1a"/>
        <rect id="Retângulo_130" data-name="Retângulo 130" width="7.224" height="7.224" transform="translate(86.221 107.776)" fill="#dc5d1a"/>
        <rect id="Retângulo_131" data-name="Retângulo 131" width="7.224" height="7.224" transform="translate(107.777 107.776)" fill="#dc5d1a"/>
        <rect id="Retângulo_132" data-name="Retângulo 132" width="7.224" height="7.224" transform="translate(129.332 107.776)" fill="#dc5d1a"/>
        <rect id="Retângulo_133" data-name="Retângulo 133" width="7.223" height="7.224" transform="translate(150.889 107.776)" fill="#dc5d1a"/>
        <rect id="Retângulo_134" data-name="Retângulo 134" width="7.224" height="7.224" transform="translate(172.443 107.776)" fill="#dc5d1a"/>
        <rect id="Retângulo_135" data-name="Retângulo 135" width="7.223" height="7.224" transform="translate(194 107.776)" fill="#dc5d1a"/>
      </g>
      <g id="Grupo_170" data-name="Grupo 170" transform="translate(785 1279)">
        <g id="Grupo_169" data-name="Grupo 169" transform="translate(0 0)" clip-path="url(#clip-path)">
          <path id="Caminho_359" data-name="Caminho 359" d="M53.143,51.635l-.059-31.067A1.369,1.369,0,0,0,51.712,19.2l-14.17.027A1.369,1.369,0,0,0,36.175,20.6L36.2,34.765a1.368,1.368,0,0,1-1.367,1.372l-14.166.026A1.369,1.369,0,0,0,19.3,37.535L19.331,51.7A1.368,1.368,0,0,0,20.7,53.066l31.073-.059a1.37,1.37,0,0,0,1.367-1.372" transform="translate(-2.338 -2.326)" fill="#7c828d"/>
          <path id="Caminho_360" data-name="Caminho 360" d="M33.833,15.536,33.8,1.367A1.37,1.37,0,0,0,32.432,0L1.367.06A1.37,1.37,0,0,0,0,1.432L.052,32.5a1.369,1.369,0,0,0,1.372,1.367l14.171-.025a1.37,1.37,0,0,0,1.367-1.372l-.027-14.164A1.369,1.369,0,0,1,18.3,16.936l14.165-.027a1.369,1.369,0,0,0,1.367-1.372" transform="translate(0 0)" fill="#de5d1a"/>
        </g>
      </g>
    </g>
  </g>
</svg>
