<svg xmlns="http://www.w3.org/2000/svg" width="25.679" height="25.679" viewBox="0 0 25.679 25.679">
  <g id="Grupo_242" data-name="Grupo 242" transform="translate(-106.701 2.88)">
    <g id="botao_subir" data-name="botao subir" transform="translate(107.201 -2.38)">
      <path id="Caminho_13" data-name="Caminho 13" d="M12.34,24.679a12.34,12.34,0,1,1,12.339-12.34A12.354,12.354,0,0,1,12.34,24.679" transform="translate(0 24.679) rotate(-90)" fill="none" stroke="#dd5c20" stroke-width="1"/>
      <path id="Caminho_14" data-name="Caminho 14" d="M.35,0A.348.348,0,0,1,.565.075l3.444,2.7a.35.35,0,0,1,0,.55L.565,6.026a.349.349,0,0,1-.431-.55L3.227,3.05.134.624A.349.349,0,0,1,.35,0" transform="translate(9.289 14.411) rotate(-90)" fill="none" stroke="#dd5c20" stroke-width="1"/>
    </g>
  </g>
</svg>
