<svg xmlns="http://www.w3.org/2000/svg" xmlns:xlink="http://www.w3.org/1999/xlink" width="166.101" height="232.958" viewBox="0 0 166.101 232.958">
  <defs>
    <clipPath id="clip-path">
      <rect id="Retângulo_71" data-name="Retângulo 71" width="166.101" height="65.725" fill="none" stroke="#cbcfd9" stroke-width="1"/>
    </clipPath>
  </defs>
  <g id="Grupo_244" data-name="Grupo 244" transform="translate(104.984 -1416.521)">
    <g id="elementos" transform="translate(-104.984 1416.521)">
      <g id="elemento" transform="translate(0 55.744)">
        <g id="Grupo_164" data-name="Grupo 164" transform="translate(0 0)" clip-path="url(#clip-path)">
          <path id="Caminho_188" data-name="Caminho 188" d="M.7,1.452,19.066,15.571,37.432,1.452,55.8,15.571,74.168,1.452,92.537,15.571,110.906,1.452l18.37,14.119L147.648,1.452l18.372,14.119" transform="translate(-0.311 -0.643)" fill="none" stroke="#cbcfd9" stroke-miterlimit="10" stroke-width="2.303"/>
          <path id="Caminho_189" data-name="Caminho 189" d="M.7,12.661,19.066,26.78,37.432,12.661,55.8,26.78,74.168,12.661,92.537,26.78l18.369-14.119,18.37,14.119,18.372-14.119L166.021,26.78" transform="translate(-0.311 -5.603)" fill="none" stroke="#cbcfd9" stroke-miterlimit="10" stroke-width="2.303"/>
          <path id="Caminho_190" data-name="Caminho 190" d="M.7,23.87,19.066,37.989,37.432,23.87,55.8,37.989,74.168,23.87,92.537,37.989,110.906,23.87l18.37,14.119L147.648,23.87l18.372,14.119" transform="translate(-0.311 -10.564)" fill="none" stroke="#cbcfd9" stroke-miterlimit="10" stroke-width="2.303"/>
          <path id="Caminho_191" data-name="Caminho 191" d="M.7,35.079,19.066,49.2,37.432,35.079,55.8,49.2,74.168,35.079,92.537,49.2l18.369-14.119L129.276,49.2l18.372-14.119L166.021,49.2" transform="translate(-0.311 -15.524)" fill="none" stroke="#cbcfd9" stroke-miterlimit="10" stroke-width="2.303"/>
          <path id="Caminho_192" data-name="Caminho 192" d="M.7,46.288,19.066,60.407,37.432,46.288,55.8,60.407,74.168,46.288,92.537,60.407l18.369-14.119,18.37,14.119,18.372-14.119,18.372,14.119" transform="translate(-0.311 -20.485)" fill="none" stroke="#cbcfd9" stroke-miterlimit="10" stroke-width="2.303"/>
          <path id="Caminho_193" data-name="Caminho 193" d="M.7,57.5,19.066,71.616,37.432,57.5,55.8,71.616,74.168,57.5,92.537,71.616,110.906,57.5l18.37,14.119L147.648,57.5l18.372,14.119" transform="translate(-0.311 -25.446)" fill="none" stroke="#cbcfd9" stroke-miterlimit="10" stroke-width="2.303"/>
          <path id="Caminho_194" data-name="Caminho 194" d="M.7,68.706,19.066,82.825,37.432,68.706,55.8,82.825,74.168,68.706,92.537,82.825l18.369-14.119,18.37,14.119,18.372-14.119,18.372,14.119" transform="translate(-0.311 -30.406)" fill="none" stroke="#cbcfd9" stroke-miterlimit="10" stroke-width="2.303"/>
          <path id="Caminho_195" data-name="Caminho 195" d="M.7,79.915,19.066,94.034,37.432,79.915,55.8,94.034,74.168,79.915,92.537,94.034l18.369-14.119,18.37,14.119,18.372-14.119,18.372,14.119" transform="translate(-0.311 -35.367)" fill="none" stroke="#cbcfd9" stroke-miterlimit="10" stroke-width="2.303"/>
          <path id="Caminho_196" data-name="Caminho 196" d="M.7,91.124l18.364,14.119L37.432,91.124,55.8,105.242,74.168,91.124l18.369,14.119,18.369-14.119,18.37,14.119,18.372-14.119,18.372,14.119" transform="translate(-0.311 -40.327)" fill="none" stroke="#cbcfd9" stroke-miterlimit="10" stroke-width="2.303"/>
        </g>
      </g>
      <g id="elemento-2" data-name="elemento" transform="translate(0 111.489)">
        <g id="Grupo_164-2" data-name="Grupo 164" transform="translate(0 0)" clip-path="url(#clip-path)">
          <path id="Caminho_188-2" data-name="Caminho 188" d="M.7,1.452,19.066,15.571,37.432,1.452,55.8,15.571,74.168,1.452,92.537,15.571,110.906,1.452l18.37,14.119L147.648,1.452l18.372,14.119" transform="translate(-0.311 -0.643)" fill="none" stroke="#cbcfd9" stroke-miterlimit="10" stroke-width="2.303"/>
          <path id="Caminho_189-2" data-name="Caminho 189" d="M.7,12.661,19.066,26.78,37.432,12.661,55.8,26.78,74.168,12.661,92.537,26.78l18.369-14.119,18.37,14.119,18.372-14.119L166.021,26.78" transform="translate(-0.311 -5.603)" fill="none" stroke="#cbcfd9" stroke-miterlimit="10" stroke-width="2.303"/>
          <path id="Caminho_190-2" data-name="Caminho 190" d="M.7,23.87,19.066,37.989,37.432,23.87,55.8,37.989,74.168,23.87,92.537,37.989,110.906,23.87l18.37,14.119L147.648,23.87l18.372,14.119" transform="translate(-0.311 -10.564)" fill="none" stroke="#cbcfd9" stroke-miterlimit="10" stroke-width="2.303"/>
          <path id="Caminho_191-2" data-name="Caminho 191" d="M.7,35.079,19.066,49.2,37.432,35.079,55.8,49.2,74.168,35.079,92.537,49.2l18.369-14.119L129.276,49.2l18.372-14.119L166.021,49.2" transform="translate(-0.311 -15.524)" fill="none" stroke="#cbcfd9" stroke-miterlimit="10" stroke-width="2.303"/>
          <path id="Caminho_192-2" data-name="Caminho 192" d="M.7,46.288,19.066,60.407,37.432,46.288,55.8,60.407,74.168,46.288,92.537,60.407l18.369-14.119,18.37,14.119,18.372-14.119,18.372,14.119" transform="translate(-0.311 -20.485)" fill="none" stroke="#cbcfd9" stroke-miterlimit="10" stroke-width="2.303"/>
          <path id="Caminho_193-2" data-name="Caminho 193" d="M.7,57.5,19.066,71.616,37.432,57.5,55.8,71.616,74.168,57.5,92.537,71.616,110.906,57.5l18.37,14.119L147.648,57.5l18.372,14.119" transform="translate(-0.311 -25.446)" fill="none" stroke="#cbcfd9" stroke-miterlimit="10" stroke-width="2.303"/>
          <path id="Caminho_194-2" data-name="Caminho 194" d="M.7,68.706,19.066,82.825,37.432,68.706,55.8,82.825,74.168,68.706,92.537,82.825l18.369-14.119,18.37,14.119,18.372-14.119,18.372,14.119" transform="translate(-0.311 -30.406)" fill="none" stroke="#cbcfd9" stroke-miterlimit="10" stroke-width="2.303"/>
          <path id="Caminho_195-2" data-name="Caminho 195" d="M.7,79.915,19.066,94.034,37.432,79.915,55.8,94.034,74.168,79.915,92.537,94.034l18.369-14.119,18.37,14.119,18.372-14.119,18.372,14.119" transform="translate(-0.311 -35.367)" fill="none" stroke="#cbcfd9" stroke-miterlimit="10" stroke-width="2.303"/>
          <path id="Caminho_196-2" data-name="Caminho 196" d="M.7,91.124l18.364,14.119L37.432,91.124,55.8,105.242,74.168,91.124l18.369,14.119,18.369-14.119,18.37,14.119,18.372-14.119,18.372,14.119" transform="translate(-0.311 -40.327)" fill="none" stroke="#cbcfd9" stroke-miterlimit="10" stroke-width="2.303"/>
        </g>
      </g>
      <g id="elemento-3" data-name="elemento" transform="translate(0 167.233)">
        <g id="Grupo_164-3" data-name="Grupo 164" transform="translate(0 0)" clip-path="url(#clip-path)">
          <path id="Caminho_188-3" data-name="Caminho 188" d="M.7,1.452,19.066,15.571,37.432,1.452,55.8,15.571,74.168,1.452,92.537,15.571,110.906,1.452l18.37,14.119L147.648,1.452l18.372,14.119" transform="translate(-0.311 -0.643)" fill="none" stroke="#cbcfd9" stroke-miterlimit="10" stroke-width="2.303"/>
          <path id="Caminho_189-3" data-name="Caminho 189" d="M.7,12.661,19.066,26.78,37.432,12.661,55.8,26.78,74.168,12.661,92.537,26.78l18.369-14.119,18.37,14.119,18.372-14.119L166.021,26.78" transform="translate(-0.311 -5.603)" fill="none" stroke="#cbcfd9" stroke-miterlimit="10" stroke-width="2.303"/>
          <path id="Caminho_190-3" data-name="Caminho 190" d="M.7,23.87,19.066,37.989,37.432,23.87,55.8,37.989,74.168,23.87,92.537,37.989,110.906,23.87l18.37,14.119L147.648,23.87l18.372,14.119" transform="translate(-0.311 -10.564)" fill="none" stroke="#cbcfd9" stroke-miterlimit="10" stroke-width="2.303"/>
          <path id="Caminho_191-3" data-name="Caminho 191" d="M.7,35.079,19.066,49.2,37.432,35.079,55.8,49.2,74.168,35.079,92.537,49.2l18.369-14.119L129.276,49.2l18.372-14.119L166.021,49.2" transform="translate(-0.311 -15.524)" fill="none" stroke="#cbcfd9" stroke-miterlimit="10" stroke-width="2.303"/>
          <path id="Caminho_192-3" data-name="Caminho 192" d="M.7,46.288,19.066,60.407,37.432,46.288,55.8,60.407,74.168,46.288,92.537,60.407l18.369-14.119,18.37,14.119,18.372-14.119,18.372,14.119" transform="translate(-0.311 -20.485)" fill="none" stroke="#cbcfd9" stroke-miterlimit="10" stroke-width="2.303"/>
          <path id="Caminho_193-3" data-name="Caminho 193" d="M.7,57.5,19.066,71.616,37.432,57.5,55.8,71.616,74.168,57.5,92.537,71.616,110.906,57.5l18.37,14.119L147.648,57.5l18.372,14.119" transform="translate(-0.311 -25.446)" fill="none" stroke="#cbcfd9" stroke-miterlimit="10" stroke-width="2.303"/>
          <path id="Caminho_194-3" data-name="Caminho 194" d="M.7,68.706,19.066,82.825,37.432,68.706,55.8,82.825,74.168,68.706,92.537,82.825l18.369-14.119,18.37,14.119,18.372-14.119,18.372,14.119" transform="translate(-0.311 -30.406)" fill="none" stroke="#cbcfd9" stroke-miterlimit="10" stroke-width="2.303"/>
          <path id="Caminho_195-3" data-name="Caminho 195" d="M.7,79.915,19.066,94.034,37.432,79.915,55.8,94.034,74.168,79.915,92.537,94.034l18.369-14.119,18.37,14.119,18.372-14.119,18.372,14.119" transform="translate(-0.311 -35.367)" fill="none" stroke="#cbcfd9" stroke-miterlimit="10" stroke-width="2.303"/>
          <path id="Caminho_196-3" data-name="Caminho 196" d="M.7,91.124l18.364,14.119L37.432,91.124,55.8,105.242,74.168,91.124l18.369,14.119,18.369-14.119,18.37,14.119,18.372-14.119,18.372,14.119" transform="translate(-0.311 -40.327)" fill="none" stroke="#cbcfd9" stroke-miterlimit="10" stroke-width="2.303"/>
        </g>
      </g>
      <g id="elemento-4" data-name="elemento" transform="translate(0 0)">
        <g id="Grupo_164-4" data-name="Grupo 164" transform="translate(0 0)" clip-path="url(#clip-path)">
          <path id="Caminho_188-4" data-name="Caminho 188" d="M.7,1.452,19.066,15.571,37.432,1.452,55.8,15.571,74.168,1.452,92.537,15.571,110.906,1.452l18.37,14.119L147.648,1.452l18.372,14.119" transform="translate(-0.311 -0.643)" fill="none" stroke="#cbcfd9" stroke-miterlimit="10" stroke-width="2.303"/>
          <path id="Caminho_189-4" data-name="Caminho 189" d="M.7,12.661,19.066,26.78,37.432,12.661,55.8,26.78,74.168,12.661,92.537,26.78l18.369-14.119,18.37,14.119,18.372-14.119L166.021,26.78" transform="translate(-0.311 -5.603)" fill="none" stroke="#cbcfd9" stroke-miterlimit="10" stroke-width="2.303"/>
          <path id="Caminho_190-4" data-name="Caminho 190" d="M.7,23.87,19.066,37.989,37.432,23.87,55.8,37.989,74.168,23.87,92.537,37.989,110.906,23.87l18.37,14.119L147.648,23.87l18.372,14.119" transform="translate(-0.311 -10.564)" fill="none" stroke="#cbcfd9" stroke-miterlimit="10" stroke-width="2.303"/>
          <path id="Caminho_191-4" data-name="Caminho 191" d="M.7,35.079,19.066,49.2,37.432,35.079,55.8,49.2,74.168,35.079,92.537,49.2l18.369-14.119L129.276,49.2l18.372-14.119L166.021,49.2" transform="translate(-0.311 -15.524)" fill="none" stroke="#cbcfd9" stroke-miterlimit="10" stroke-width="2.303"/>
          <path id="Caminho_192-4" data-name="Caminho 192" d="M.7,46.288,19.066,60.407,37.432,46.288,55.8,60.407,74.168,46.288,92.537,60.407l18.369-14.119,18.37,14.119,18.372-14.119,18.372,14.119" transform="translate(-0.311 -20.485)" fill="none" stroke="#cbcfd9" stroke-miterlimit="10" stroke-width="2.303"/>
          <path id="Caminho_193-4" data-name="Caminho 193" d="M.7,57.5,19.066,71.616,37.432,57.5,55.8,71.616,74.168,57.5,92.537,71.616,110.906,57.5l18.37,14.119L147.648,57.5l18.372,14.119" transform="translate(-0.311 -25.446)" fill="none" stroke="#cbcfd9" stroke-miterlimit="10" stroke-width="2.303"/>
          <path id="Caminho_194-4" data-name="Caminho 194" d="M.7,68.706,19.066,82.825,37.432,68.706,55.8,82.825,74.168,68.706,92.537,82.825l18.369-14.119,18.37,14.119,18.372-14.119,18.372,14.119" transform="translate(-0.311 -30.406)" fill="none" stroke="#cbcfd9" stroke-miterlimit="10" stroke-width="2.303"/>
          <path id="Caminho_195-4" data-name="Caminho 195" d="M.7,79.915,19.066,94.034,37.432,79.915,55.8,94.034,74.168,79.915,92.537,94.034l18.369-14.119,18.37,14.119,18.372-14.119,18.372,14.119" transform="translate(-0.311 -35.367)" fill="none" stroke="#cbcfd9" stroke-miterlimit="10" stroke-width="2.303"/>
          <path id="Caminho_196-4" data-name="Caminho 196" d="M.7,91.124l18.364,14.119L37.432,91.124,55.8,105.242,74.168,91.124l18.369,14.119,18.369-14.119,18.37,14.119,18.372-14.119,18.372,14.119" transform="translate(-0.311 -40.327)" fill="none" stroke="#cbcfd9" stroke-miterlimit="10" stroke-width="2.303"/>
        </g>
      </g>
    </g>
  </g>
</svg>
